solid CATIA STL
  facet normal  0.000000e+000  0.000000e+000  1.000000e+000
    outer loop
      vertex -3.520688e+000  8.499692e+000  3.250000e+001
      vertex  3.520688e+000  8.499692e+000  3.250000e+001
      vertex  5.633189e-016  9.200000e+000  3.250000e+001
    endloop
  endfacet
  facet normal  -0.000000e+000  0.000000e+000  9.999999e-001
    outer loop
      vertex  3.520688e+000  8.499692e+000  3.250000e+001
      vertex -3.520688e+000  8.499692e+000  3.250000e+001
      vertex  6.505383e+000  6.505383e+000  3.250000e+001
    endloop
  endfacet
  facet normal  0.000000e+000  0.000000e+000  1.000000e+000
    outer loop
      vertex  6.505383e+000  6.505383e+000  3.250000e+001
      vertex -3.520688e+000  8.499692e+000  3.250000e+001
      vertex -6.505383e+000  6.505383e+000  3.250000e+001
    endloop
  endfacet
  facet normal  -0.000000e+000  0.000000e+000  1.000000e+000
    outer loop
      vertex  6.505383e+000  6.505383e+000  3.250000e+001
      vertex -6.505383e+000  6.505383e+000  3.250000e+001
      vertex  8.499692e+000  3.520688e+000  3.250000e+001
    endloop
  endfacet
  facet normal  0.000000e+000  0.000000e+000  1.000000e+000
    outer loop
      vertex  8.499692e+000  3.520688e+000  3.250000e+001
      vertex -6.505383e+000  6.505383e+000  3.250000e+001
      vertex -8.499692e+000  3.520688e+000  3.250000e+001
    endloop
  endfacet
  facet normal  -0.000000e+000  0.000000e+000  1.000000e+000
    outer loop
      vertex  8.499692e+000  3.520688e+000  3.250000e+001
      vertex -8.499692e+000  3.520688e+000  3.250000e+001
      vertex  9.200000e+000  0.000000e+000  3.250000e+001
    endloop
  endfacet
  facet normal  0.000000e+000  0.000000e+000  1.000000e+000
    outer loop
      vertex  9.200000e+000  0.000000e+000  3.250000e+001
      vertex -8.499692e+000  3.520688e+000  3.250000e+001
      vertex -9.200000e+000  1.126638e-015  3.250000e+001
    endloop
  endfacet
  facet normal  0.000000e+000  0.000000e+000  1.000000e+000
    outer loop
      vertex  9.200000e+000  0.000000e+000  3.250000e+001
      vertex -9.200000e+000  1.126638e-015  3.250000e+001
      vertex  8.499692e+000 -3.520688e+000  3.250000e+001
    endloop
  endfacet
  facet normal  0.000000e+000  0.000000e+000  1.000000e+000
    outer loop
      vertex  8.499692e+000 -3.520688e+000  3.250000e+001
      vertex -9.200000e+000  1.126638e-015  3.250000e+001
      vertex -8.499692e+000 -3.520688e+000  3.250000e+001
    endloop
  endfacet
  facet normal  -0.000000e+000  0.000000e+000  1.000000e+000
    outer loop
      vertex  8.499692e+000 -3.520688e+000  3.250000e+001
      vertex -8.499692e+000 -3.520688e+000  3.250000e+001
      vertex  6.505383e+000 -6.505383e+000  3.250000e+001
    endloop
  endfacet
  facet normal  0.000000e+000  0.000000e+000  1.000000e+000
    outer loop
      vertex  6.505383e+000 -6.505383e+000  3.250000e+001
      vertex -8.499692e+000 -3.520688e+000  3.250000e+001
      vertex -6.505383e+000 -6.505383e+000  3.250000e+001
    endloop
  endfacet
  facet normal  -0.000000e+000  0.000000e+000  1.000000e+000
    outer loop
      vertex  6.505383e+000 -6.505383e+000  3.250000e+001
      vertex -6.505383e+000 -6.505383e+000  3.250000e+001
      vertex  3.520688e+000 -8.499692e+000  3.250000e+001
    endloop
  endfacet
  facet normal  0.000000e+000  0.000000e+000  9.999999e-001
    outer loop
      vertex  3.520688e+000 -8.499692e+000  3.250000e+001
      vertex -6.505383e+000 -6.505383e+000  3.250000e+001
      vertex -3.520688e+000 -8.499692e+000  3.250000e+001
    endloop
  endfacet
  facet normal  -0.000000e+000  0.000000e+000  1.000000e+000
    outer loop
      vertex  3.520688e+000 -8.499692e+000  3.250000e+001
      vertex -3.520688e+000 -8.499692e+000  3.250000e+001
      vertex -9.861198e-015 -9.200000e+000  3.250000e+001
    endloop
  endfacet
  facet normal  0.000000e+000  0.000000e+000 -1.000000e+000
    outer loop
      vertex  5.633189e-016  9.200000e+000 -3.250000e+001
      vertex  3.520688e+000  8.499692e+000 -3.250000e+001
      vertex -3.520688e+000  8.499692e+000 -3.250000e+001
    endloop
  endfacet
  facet normal  0.000000e+000  0.000000e+000 -1.000000e+000
    outer loop
      vertex -9.861198e-015 -9.200000e+000 -3.250000e+001
      vertex -3.520688e+000 -8.499692e+000 -3.250000e+001
      vertex  3.520688e+000 -8.499692e+000 -3.250000e+001
    endloop
  endfacet
  facet normal  0.000000e+000  0.000000e+000 -9.999999e-001
    outer loop
      vertex  3.520688e+000 -8.499692e+000 -3.250000e+001
      vertex -3.520688e+000 -8.499692e+000 -3.250000e+001
      vertex -6.505383e+000 -6.505383e+000 -3.250000e+001
    endloop
  endfacet
  facet normal  0.000000e+000  0.000000e+000 -1.000000e+000
    outer loop
      vertex  3.520688e+000 -8.499692e+000 -3.250000e+001
      vertex -6.505383e+000 -6.505383e+000 -3.250000e+001
      vertex  6.505383e+000 -6.505383e+000 -3.250000e+001
    endloop
  endfacet
  facet normal  0.000000e+000  0.000000e+000 -1.000000e+000
    outer loop
      vertex  6.505383e+000 -6.505383e+000 -3.250000e+001
      vertex -6.505383e+000 -6.505383e+000 -3.250000e+001
      vertex -8.499692e+000 -3.520688e+000 -3.250000e+001
    endloop
  endfacet
  facet normal  0.000000e+000  0.000000e+000 -1.000000e+000
    outer loop
      vertex  6.505383e+000 -6.505383e+000 -3.250000e+001
      vertex -8.499692e+000 -3.520688e+000 -3.250000e+001
      vertex  8.499692e+000 -3.520688e+000 -3.250000e+001
    endloop
  endfacet
  facet normal  0.000000e+000  0.000000e+000 -1.000000e+000
    outer loop
      vertex  8.499692e+000 -3.520688e+000 -3.250000e+001
      vertex -8.499692e+000 -3.520688e+000 -3.250000e+001
      vertex -9.200000e+000  1.126638e-015 -3.250000e+001
    endloop
  endfacet
  facet normal  0.000000e+000  0.000000e+000 -1.000000e+000
    outer loop
      vertex  8.499692e+000 -3.520688e+000 -3.250000e+001
      vertex -9.200000e+000  1.126638e-015 -3.250000e+001
      vertex  9.200000e+000  0.000000e+000 -3.250000e+001
    endloop
  endfacet
  facet normal  0.000000e+000  0.000000e+000 -1.000000e+000
    outer loop
      vertex  9.200000e+000  0.000000e+000 -3.250000e+001
      vertex -9.200000e+000  1.126638e-015 -3.250000e+001
      vertex -8.499692e+000  3.520688e+000 -3.250000e+001
    endloop
  endfacet
  facet normal  0.000000e+000  0.000000e+000 -1.000000e+000
    outer loop
      vertex  9.200000e+000  0.000000e+000 -3.250000e+001
      vertex -8.499692e+000  3.520688e+000 -3.250000e+001
      vertex  8.499692e+000  3.520688e+000 -3.250000e+001
    endloop
  endfacet
  facet normal  0.000000e+000  0.000000e+000 -1.000000e+000
    outer loop
      vertex  8.499692e+000  3.520688e+000 -3.250000e+001
      vertex -8.499692e+000  3.520688e+000 -3.250000e+001
      vertex -6.505383e+000  6.505383e+000 -3.250000e+001
    endloop
  endfacet
  facet normal  0.000000e+000  0.000000e+000 -1.000000e+000
    outer loop
      vertex  8.499692e+000  3.520688e+000 -3.250000e+001
      vertex -6.505383e+000  6.505383e+000 -3.250000e+001
      vertex  6.505383e+000  6.505383e+000 -3.250000e+001
    endloop
  endfacet
  facet normal  0.000000e+000  0.000000e+000 -1.000000e+000
    outer loop
      vertex  6.505383e+000  6.505383e+000 -3.250000e+001
      vertex -6.505383e+000  6.505383e+000 -3.250000e+001
      vertex -3.520688e+000  8.499692e+000 -3.250000e+001
    endloop
  endfacet
  facet normal  0.000000e+000  0.000000e+000 -9.999999e-001
    outer loop
      vertex  6.505383e+000  6.505383e+000 -3.250000e+001
      vertex -3.520688e+000  8.499692e+000 -3.250000e+001
      vertex  3.520688e+000  8.499692e+000 -3.250000e+001
    endloop
  endfacet
  facet normal  9.807853e-001 -1.950902e-001  0.000000e+000
    outer loop
      vertex  9.200000e+000  0.000000e+000 -3.250000e+001
      vertex  9.200000e+000  0.000000e+000  3.250000e+001
      vertex  8.499692e+000 -3.520688e+000 -3.250000e+001
    endloop
  endfacet
  facet normal  9.807853e-001 -1.950902e-001  0.000000e+000
    outer loop
      vertex  8.499692e+000 -3.520688e+000 -3.250000e+001
      vertex  9.200000e+000  0.000000e+000  3.250000e+001
      vertex  8.499692e+000 -3.520688e+000  3.250000e+001
    endloop
  endfacet
  facet normal  8.314696e-001 -5.555702e-001  0.000000e+000
    outer loop
      vertex  8.499692e+000 -3.520688e+000 -3.250000e+001
      vertex  8.499692e+000 -3.520688e+000  3.250000e+001
      vertex  6.505383e+000 -6.505383e+000 -3.250000e+001
    endloop
  endfacet
  facet normal  8.314696e-001 -5.555702e-001  0.000000e+000
    outer loop
      vertex  6.505383e+000 -6.505383e+000 -3.250000e+001
      vertex  8.499692e+000 -3.520688e+000  3.250000e+001
      vertex  6.505383e+000 -6.505383e+000  3.250000e+001
    endloop
  endfacet
  facet normal  5.555702e-001 -8.314696e-001  0.000000e+000
    outer loop
      vertex  6.505383e+000 -6.505383e+000 -3.250000e+001
      vertex  6.505383e+000 -6.505383e+000  3.250000e+001
      vertex  3.520688e+000 -8.499692e+000 -3.250000e+001
    endloop
  endfacet
  facet normal  5.555702e-001 -8.314696e-001  0.000000e+000
    outer loop
      vertex  3.520688e+000 -8.499692e+000 -3.250000e+001
      vertex  6.505383e+000 -6.505383e+000  3.250000e+001
      vertex  3.520688e+000 -8.499692e+000  3.250000e+001
    endloop
  endfacet
  facet normal  1.950902e-001 -9.807853e-001  0.000000e+000
    outer loop
      vertex  3.520688e+000 -8.499692e+000 -3.250000e+001
      vertex  3.520688e+000 -8.499692e+000  3.250000e+001
      vertex -9.861198e-015 -9.200000e+000 -3.250000e+001
    endloop
  endfacet
  facet normal  1.950902e-001 -9.807853e-001  0.000000e+000
    outer loop
      vertex -9.861198e-015 -9.200000e+000 -3.250000e+001
      vertex  3.520688e+000 -8.499692e+000  3.250000e+001
      vertex -9.861198e-015 -9.200000e+000  3.250000e+001
    endloop
  endfacet
  facet normal -1.950902e-001 -9.807853e-001  -0.000000e+000
    outer loop
      vertex -9.861198e-015 -9.200000e+000 -3.250000e+001
      vertex -9.861198e-015 -9.200000e+000  3.250000e+001
      vertex -3.520688e+000 -8.499692e+000 -3.250000e+001
    endloop
  endfacet
  facet normal -1.950902e-001 -9.807853e-001  0.000000e+000
    outer loop
      vertex -3.520688e+000 -8.499692e+000 -3.250000e+001
      vertex -9.861198e-015 -9.200000e+000  3.250000e+001
      vertex -3.520688e+000 -8.499692e+000  3.250000e+001
    endloop
  endfacet
  facet normal -5.555702e-001 -8.314696e-001  -0.000000e+000
    outer loop
      vertex -3.520688e+000 -8.499692e+000 -3.250000e+001
      vertex -3.520688e+000 -8.499692e+000  3.250000e+001
      vertex -6.505383e+000 -6.505383e+000 -3.250000e+001
    endloop
  endfacet
  facet normal -5.555702e-001 -8.314696e-001  0.000000e+000
    outer loop
      vertex -6.505383e+000 -6.505383e+000 -3.250000e+001
      vertex -3.520688e+000 -8.499692e+000  3.250000e+001
      vertex -6.505383e+000 -6.505383e+000  3.250000e+001
    endloop
  endfacet
  facet normal -8.314696e-001 -5.555702e-001  -0.000000e+000
    outer loop
      vertex -6.505383e+000 -6.505383e+000 -3.250000e+001
      vertex -6.505383e+000 -6.505383e+000  3.250000e+001
      vertex -8.499692e+000 -3.520688e+000 -3.250000e+001
    endloop
  endfacet
  facet normal -8.314696e-001 -5.555702e-001  0.000000e+000
    outer loop
      vertex -8.499692e+000 -3.520688e+000 -3.250000e+001
      vertex -6.505383e+000 -6.505383e+000  3.250000e+001
      vertex -8.499692e+000 -3.520688e+000  3.250000e+001
    endloop
  endfacet
  facet normal -9.807853e-001 -1.950902e-001  -0.000000e+000
    outer loop
      vertex -8.499692e+000 -3.520688e+000 -3.250000e+001
      vertex -8.499692e+000 -3.520688e+000  3.250000e+001
      vertex -9.200000e+000  1.126638e-015 -3.250000e+001
    endloop
  endfacet
  facet normal -9.807853e-001 -1.950902e-001  0.000000e+000
    outer loop
      vertex -9.200000e+000  1.126638e-015 -3.250000e+001
      vertex -8.499692e+000 -3.520688e+000  3.250000e+001
      vertex -9.200000e+000  1.126638e-015  3.250000e+001
    endloop
  endfacet
  facet normal -9.807853e-001  1.950902e-001  0.000000e+000
    outer loop
      vertex -9.200000e+000  1.126638e-015 -3.250000e+001
      vertex -9.200000e+000  1.126638e-015  3.250000e+001
      vertex -8.499692e+000  3.520688e+000 -3.250000e+001
    endloop
  endfacet
  facet normal -9.807853e-001  1.950902e-001  0.000000e+000
    outer loop
      vertex -8.499692e+000  3.520688e+000 -3.250000e+001
      vertex -9.200000e+000  1.126638e-015  3.250000e+001
      vertex -8.499692e+000  3.520688e+000  3.250000e+001
    endloop
  endfacet
  facet normal -8.314696e-001  5.555702e-001  0.000000e+000
    outer loop
      vertex -8.499692e+000  3.520688e+000 -3.250000e+001
      vertex -8.499692e+000  3.520688e+000  3.250000e+001
      vertex -6.505383e+000  6.505383e+000 -3.250000e+001
    endloop
  endfacet
  facet normal -8.314696e-001  5.555702e-001  0.000000e+000
    outer loop
      vertex -6.505383e+000  6.505383e+000 -3.250000e+001
      vertex -8.499692e+000  3.520688e+000  3.250000e+001
      vertex -6.505383e+000  6.505383e+000  3.250000e+001
    endloop
  endfacet
  facet normal -5.555702e-001  8.314696e-001  0.000000e+000
    outer loop
      vertex -6.505383e+000  6.505383e+000 -3.250000e+001
      vertex -6.505383e+000  6.505383e+000  3.250000e+001
      vertex -3.520688e+000  8.499692e+000 -3.250000e+001
    endloop
  endfacet
  facet normal -5.555702e-001  8.314696e-001  0.000000e+000
    outer loop
      vertex -3.520688e+000  8.499692e+000 -3.250000e+001
      vertex -6.505383e+000  6.505383e+000  3.250000e+001
      vertex -3.520688e+000  8.499692e+000  3.250000e+001
    endloop
  endfacet
  facet normal -1.950902e-001  9.807853e-001  0.000000e+000
    outer loop
      vertex -3.520688e+000  8.499692e+000 -3.250000e+001
      vertex -3.520688e+000  8.499692e+000  3.250000e+001
      vertex  5.633189e-016  9.200000e+000 -3.250000e+001
    endloop
  endfacet
  facet normal -1.950902e-001  9.807853e-001  0.000000e+000
    outer loop
      vertex  5.633189e-016  9.200000e+000 -3.250000e+001
      vertex -3.520688e+000  8.499692e+000  3.250000e+001
      vertex  5.633189e-016  9.200000e+000  3.250000e+001
    endloop
  endfacet
  facet normal  1.950902e-001  9.807853e-001  0.000000e+000
    outer loop
      vertex  5.633189e-016  9.200000e+000 -3.250000e+001
      vertex  5.633189e-016  9.200000e+000  3.250000e+001
      vertex  3.520688e+000  8.499692e+000 -3.250000e+001
    endloop
  endfacet
  facet normal  1.950902e-001  9.807853e-001  -0.000000e+000
    outer loop
      vertex  3.520688e+000  8.499692e+000 -3.250000e+001
      vertex  5.633189e-016  9.200000e+000  3.250000e+001
      vertex  3.520688e+000  8.499692e+000  3.250000e+001
    endloop
  endfacet
  facet normal  5.555702e-001  8.314696e-001  0.000000e+000
    outer loop
      vertex  3.520688e+000  8.499692e+000 -3.250000e+001
      vertex  3.520688e+000  8.499692e+000  3.250000e+001
      vertex  6.505383e+000  6.505383e+000 -3.250000e+001
    endloop
  endfacet
  facet normal  5.555702e-001  8.314696e-001  -0.000000e+000
    outer loop
      vertex  6.505383e+000  6.505383e+000 -3.250000e+001
      vertex  3.520688e+000  8.499692e+000  3.250000e+001
      vertex  6.505383e+000  6.505383e+000  3.250000e+001
    endloop
  endfacet
  facet normal  8.314696e-001  5.555702e-001  0.000000e+000
    outer loop
      vertex  6.505383e+000  6.505383e+000 -3.250000e+001
      vertex  6.505383e+000  6.505383e+000  3.250000e+001
      vertex  8.499692e+000  3.520688e+000 -3.250000e+001
    endloop
  endfacet
  facet normal  8.314696e-001  5.555702e-001  -0.000000e+000
    outer loop
      vertex  8.499692e+000  3.520688e+000 -3.250000e+001
      vertex  6.505383e+000  6.505383e+000  3.250000e+001
      vertex  8.499692e+000  3.520688e+000  3.250000e+001
    endloop
  endfacet
  facet normal  9.807853e-001  1.950902e-001  0.000000e+000
    outer loop
      vertex  8.499692e+000  3.520688e+000 -3.250000e+001
      vertex  8.499692e+000  3.520688e+000  3.250000e+001
      vertex  9.200000e+000  0.000000e+000 -3.250000e+001
    endloop
  endfacet
  facet normal  9.807853e-001  1.950902e-001  -0.000000e+000
    outer loop
      vertex  9.200000e+000  0.000000e+000 -3.250000e+001
      vertex  8.499692e+000  3.520688e+000  3.250000e+001
      vertex  9.200000e+000  0.000000e+000  3.250000e+001
    endloop
  endfacet
endsolid CATIA STL
