solid CATIA STL
  facet normal  0.000000e+000  0.000000e+000  1.000000e+000
    outer loop
      vertex -2.250000e+001  1.000000e+001  8.000000e-001
      vertex -2.250000e+001 -1.000000e+001  8.000000e-001
      vertex -2.176000e+001  9.796851e-016  8.000000e-001
    endloop
  endfacet
  facet normal  0.000000e+000  -0.000000e+000  1.000000e+000
    outer loop
      vertex -2.250000e+001  1.000000e+001  8.000000e-001
      vertex -2.176000e+001  9.796851e-016  8.000000e-001
      vertex -2.115104e+001  3.061467e+000  8.000000e-001
    endloop
  endfacet
  facet normal  0.000000e+000  -0.000000e+000  1.000000e+000
    outer loop
      vertex -2.250000e+001  1.000000e+001  8.000000e-001
      vertex -2.115104e+001  3.061467e+000  8.000000e-001
      vertex -1.941685e+001  5.656854e+000  8.000000e-001
    endloop
  endfacet
  facet normal  0.000000e+000  -0.000000e+000  1.000000e+000
    outer loop
      vertex -2.250000e+001  1.000000e+001  8.000000e-001
      vertex -1.941685e+001  5.656854e+000  8.000000e-001
      vertex -1.682147e+001  7.391036e+000  8.000000e-001
    endloop
  endfacet
  facet normal  0.000000e+000  -0.000000e+000  9.999999e-001
    outer loop
      vertex -2.250000e+001  1.000000e+001  8.000000e-001
      vertex -1.682147e+001  7.391036e+000  8.000000e-001
      vertex -1.376000e+001  8.000000e+000  8.000000e-001
    endloop
  endfacet
  facet normal  0.000000e+000  -0.000000e+000  1.000000e+000
    outer loop
      vertex -2.250000e+001  1.000000e+001  8.000000e-001
      vertex -1.376000e+001  8.000000e+000  8.000000e-001
      vertex  1.376000e+001  8.000000e+000  8.000000e-001
    endloop
  endfacet
  facet normal  0.000000e+000  -0.000000e+000  1.000000e+000
    outer loop
      vertex -2.250000e+001  1.000000e+001  8.000000e-001
      vertex  1.376000e+001  8.000000e+000  8.000000e-001
      vertex  2.250000e+001  1.000000e+001  8.000000e-001
    endloop
  endfacet
  facet normal  0.000000e+000  0.000000e+000  1.000000e+000
    outer loop
      vertex -2.250000e+001 -1.000000e+001  8.000000e-001
      vertex  2.250000e+001 -1.000000e+001  8.000000e-001
      vertex  1.376000e+001 -8.000000e+000  8.000000e-001
    endloop
  endfacet
  facet normal  0.000000e+000  0.000000e+000  1.000000e+000
    outer loop
      vertex -2.250000e+001 -1.000000e+001  8.000000e-001
      vertex  1.376000e+001 -8.000000e+000  8.000000e-001
      vertex -1.376000e+001 -8.000000e+000  8.000000e-001
    endloop
  endfacet
  facet normal  0.000000e+000  0.000000e+000  9.999999e-001
    outer loop
      vertex -2.250000e+001 -1.000000e+001  8.000000e-001
      vertex -1.376000e+001 -8.000000e+000  8.000000e-001
      vertex -1.682147e+001 -7.391036e+000  8.000000e-001
    endloop
  endfacet
  facet normal  0.000000e+000  0.000000e+000  1.000000e+000
    outer loop
      vertex -2.250000e+001 -1.000000e+001  8.000000e-001
      vertex -1.682147e+001 -7.391036e+000  8.000000e-001
      vertex -1.941685e+001 -5.656854e+000  8.000000e-001
    endloop
  endfacet
  facet normal  0.000000e+000  0.000000e+000  1.000000e+000
    outer loop
      vertex -2.250000e+001 -1.000000e+001  8.000000e-001
      vertex -1.941685e+001 -5.656854e+000  8.000000e-001
      vertex -2.115104e+001 -3.061467e+000  8.000000e-001
    endloop
  endfacet
  facet normal  0.000000e+000  0.000000e+000  1.000000e+000
    outer loop
      vertex -2.250000e+001 -1.000000e+001  8.000000e-001
      vertex -2.115104e+001 -3.061467e+000  8.000000e-001
      vertex -2.176000e+001  9.796851e-016  8.000000e-001
    endloop
  endfacet
  facet normal  0.000000e+000  0.000000e+000  1.000000e+000
    outer loop
      vertex  2.250000e+001 -1.000000e+001  8.000000e-001
      vertex  2.176000e+001  0.000000e+000  8.000000e-001
      vertex  2.115104e+001 -3.061467e+000  8.000000e-001
    endloop
  endfacet
  facet normal  0.000000e+000  0.000000e+000  1.000000e+000
    outer loop
      vertex  2.250000e+001 -1.000000e+001  8.000000e-001
      vertex  2.115104e+001 -3.061467e+000  8.000000e-001
      vertex  1.941685e+001 -5.656854e+000  8.000000e-001
    endloop
  endfacet
  facet normal  0.000000e+000  0.000000e+000  1.000000e+000
    outer loop
      vertex  2.250000e+001 -1.000000e+001  8.000000e-001
      vertex  1.941685e+001 -5.656854e+000  8.000000e-001
      vertex  1.682147e+001 -7.391036e+000  8.000000e-001
    endloop
  endfacet
  facet normal  0.000000e+000  0.000000e+000  9.999999e-001
    outer loop
      vertex  2.250000e+001 -1.000000e+001  8.000000e-001
      vertex  1.682147e+001 -7.391036e+000  8.000000e-001
      vertex  1.376000e+001 -8.000000e+000  8.000000e-001
    endloop
  endfacet
  facet normal  -0.000000e+000  0.000000e+000  9.999999e-001
    outer loop
      vertex  2.250000e+001  1.000000e+001  8.000000e-001
      vertex  1.376000e+001  8.000000e+000  8.000000e-001
      vertex  1.682147e+001  7.391036e+000  8.000000e-001
    endloop
  endfacet
  facet normal  -0.000000e+000  0.000000e+000  1.000000e+000
    outer loop
      vertex  2.250000e+001  1.000000e+001  8.000000e-001
      vertex  1.682147e+001  7.391036e+000  8.000000e-001
      vertex  1.941685e+001  5.656854e+000  8.000000e-001
    endloop
  endfacet
  facet normal  -0.000000e+000  0.000000e+000  1.000000e+000
    outer loop
      vertex  2.250000e+001  1.000000e+001  8.000000e-001
      vertex  1.941685e+001  5.656854e+000  8.000000e-001
      vertex  2.115104e+001  3.061467e+000  8.000000e-001
    endloop
  endfacet
  facet normal  -0.000000e+000  0.000000e+000  1.000000e+000
    outer loop
      vertex  2.250000e+001  1.000000e+001  8.000000e-001
      vertex  2.115104e+001  3.061467e+000  8.000000e-001
      vertex  2.176000e+001  0.000000e+000  8.000000e-001
    endloop
  endfacet
  facet normal  -0.000000e+000  0.000000e+000  1.000000e+000
    outer loop
      vertex  2.250000e+001  1.000000e+001  8.000000e-001
      vertex  2.176000e+001  0.000000e+000  8.000000e-001
      vertex  2.250000e+001 -1.000000e+001  8.000000e-001
    endloop
  endfacet
  facet normal  -0.000000e+000  0.000000e+000  1.000000e+000
    outer loop
      vertex  1.376000e+001  8.000000e+000  8.000000e-001
      vertex -1.376000e+001  8.000000e+000  8.000000e-001
      vertex  1.069853e+001  7.391036e+000  8.000000e-001
    endloop
  endfacet
  facet normal  0.000000e+000  0.000000e+000  1.000000e+000
    outer loop
      vertex  1.069853e+001  7.391036e+000  8.000000e-001
      vertex -1.376000e+001  8.000000e+000  8.000000e-001
      vertex -1.069853e+001  7.391036e+000  8.000000e-001
    endloop
  endfacet
  facet normal  -0.000000e+000  0.000000e+000  1.000000e+000
    outer loop
      vertex  1.069853e+001  7.391036e+000  8.000000e-001
      vertex -1.069853e+001  7.391036e+000  8.000000e-001
      vertex  8.103146e+000  5.656854e+000  8.000000e-001
    endloop
  endfacet
  facet normal  0.000000e+000  0.000000e+000  1.000000e+000
    outer loop
      vertex  8.103146e+000  5.656854e+000  8.000000e-001
      vertex -1.069853e+001  7.391036e+000  8.000000e-001
      vertex -8.103146e+000  5.656854e+000  8.000000e-001
    endloop
  endfacet
  facet normal  -0.000000e+000  0.000000e+000  1.000000e+000
    outer loop
      vertex  8.103146e+000  5.656854e+000  8.000000e-001
      vertex -8.103146e+000  5.656854e+000  8.000000e-001
      vertex  6.368964e+000  3.061467e+000  8.000000e-001
    endloop
  endfacet
  facet normal  0.000000e+000  0.000000e+000  1.000000e+000
    outer loop
      vertex  6.368964e+000  3.061467e+000  8.000000e-001
      vertex -8.103146e+000  5.656854e+000  8.000000e-001
      vertex -6.368964e+000  3.061467e+000  8.000000e-001
    endloop
  endfacet
  facet normal  -0.000000e+000  0.000000e+000  1.000000e+000
    outer loop
      vertex  6.368964e+000  3.061467e+000  8.000000e-001
      vertex -6.368964e+000  3.061467e+000  8.000000e-001
      vertex  5.760000e+000  9.796851e-016  8.000000e-001
    endloop
  endfacet
  facet normal  0.000000e+000  0.000000e+000  1.000000e+000
    outer loop
      vertex  5.760000e+000  9.796851e-016  8.000000e-001
      vertex -6.368964e+000  3.061467e+000  8.000000e-001
      vertex -5.760000e+000  0.000000e+000  8.000000e-001
    endloop
  endfacet
  facet normal  -0.000000e+000  0.000000e+000  1.000000e+000
    outer loop
      vertex  5.760000e+000  9.796851e-016  8.000000e-001
      vertex -5.760000e+000  0.000000e+000  8.000000e-001
      vertex  6.368964e+000 -3.061467e+000  8.000000e-001
    endloop
  endfacet
  facet normal  0.000000e+000  0.000000e+000  1.000000e+000
    outer loop
      vertex  6.368964e+000 -3.061467e+000  8.000000e-001
      vertex -5.760000e+000  0.000000e+000  8.000000e-001
      vertex -6.368964e+000 -3.061467e+000  8.000000e-001
    endloop
  endfacet
  facet normal  -0.000000e+000  0.000000e+000  1.000000e+000
    outer loop
      vertex  6.368964e+000 -3.061467e+000  8.000000e-001
      vertex -6.368964e+000 -3.061467e+000  8.000000e-001
      vertex  8.103146e+000 -5.656854e+000  8.000000e-001
    endloop
  endfacet
  facet normal  0.000000e+000  0.000000e+000  1.000000e+000
    outer loop
      vertex  8.103146e+000 -5.656854e+000  8.000000e-001
      vertex -6.368964e+000 -3.061467e+000  8.000000e-001
      vertex -8.103146e+000 -5.656854e+000  8.000000e-001
    endloop
  endfacet
  facet normal  -0.000000e+000  0.000000e+000  1.000000e+000
    outer loop
      vertex  8.103146e+000 -5.656854e+000  8.000000e-001
      vertex -8.103146e+000 -5.656854e+000  8.000000e-001
      vertex  1.069853e+001 -7.391036e+000  8.000000e-001
    endloop
  endfacet
  facet normal  0.000000e+000  0.000000e+000  1.000000e+000
    outer loop
      vertex  1.069853e+001 -7.391036e+000  8.000000e-001
      vertex -8.103146e+000 -5.656854e+000  8.000000e-001
      vertex -1.069853e+001 -7.391036e+000  8.000000e-001
    endloop
  endfacet
  facet normal  -0.000000e+000  0.000000e+000  1.000000e+000
    outer loop
      vertex  1.069853e+001 -7.391036e+000  8.000000e-001
      vertex -1.069853e+001 -7.391036e+000  8.000000e-001
      vertex  1.376000e+001 -8.000000e+000  8.000000e-001
    endloop
  endfacet
  facet normal  0.000000e+000  0.000000e+000  1.000000e+000
    outer loop
      vertex  1.376000e+001 -8.000000e+000  8.000000e-001
      vertex -1.069853e+001 -7.391036e+000  8.000000e-001
      vertex -1.376000e+001 -8.000000e+000  8.000000e-001
    endloop
  endfacet
  facet normal  9.807852e-001 -1.950907e-001  0.000000e+000
    outer loop
      vertex  2.176000e+001  0.000000e+000  8.000000e-001
      vertex  2.176000e+001  0.000000e+000  1.281000e+001
      vertex  2.115104e+001 -3.061467e+000  8.000000e-001
    endloop
  endfacet
  facet normal  9.807852e-001 -1.950907e-001  0.000000e+000
    outer loop
      vertex  2.115104e+001 -3.061467e+000  8.000000e-001
      vertex  2.176000e+001  0.000000e+000  1.281000e+001
      vertex  2.115104e+001 -3.061467e+000  1.281000e+001
    endloop
  endfacet
  facet normal  8.314698e-001 -5.555699e-001  0.000000e+000
    outer loop
      vertex  2.115104e+001 -3.061467e+000  8.000000e-001
      vertex  2.115104e+001 -3.061467e+000  1.281000e+001
      vertex  1.941685e+001 -5.656854e+000  8.000000e-001
    endloop
  endfacet
  facet normal  8.314698e-001 -5.555699e-001  0.000000e+000
    outer loop
      vertex  1.941685e+001 -5.656854e+000  8.000000e-001
      vertex  2.115104e+001 -3.061467e+000  1.281000e+001
      vertex  1.941685e+001 -5.656854e+000  1.281000e+001
    endloop
  endfacet
  facet normal  5.555702e-001 -8.314697e-001  0.000000e+000
    outer loop
      vertex  1.941685e+001 -5.656854e+000  8.000000e-001
      vertex  1.941685e+001 -5.656854e+000  1.281000e+001
      vertex  1.682147e+001 -7.391036e+000  8.000000e-001
    endloop
  endfacet
  facet normal  5.555702e-001 -8.314697e-001  0.000000e+000
    outer loop
      vertex  1.682147e+001 -7.391036e+000  8.000000e-001
      vertex  1.941685e+001 -5.656854e+000  1.281000e+001
      vertex  1.682147e+001 -7.391036e+000  1.281000e+001
    endloop
  endfacet
  facet normal  1.950903e-001 -9.807853e-001  0.000000e+000
    outer loop
      vertex  1.682147e+001 -7.391036e+000  8.000000e-001
      vertex  1.682147e+001 -7.391036e+000  1.281000e+001
      vertex  1.376000e+001 -8.000000e+000  8.000000e-001
    endloop
  endfacet
  facet normal  1.950903e-001 -9.807853e-001  0.000000e+000
    outer loop
      vertex  1.376000e+001 -8.000000e+000  8.000000e-001
      vertex  1.682147e+001 -7.391036e+000  1.281000e+001
      vertex  1.376000e+001 -8.000000e+000  1.281000e+001
    endloop
  endfacet
  facet normal -1.950903e-001 -9.807853e-001  -0.000000e+000
    outer loop
      vertex  1.376000e+001 -8.000000e+000  8.000000e-001
      vertex  1.376000e+001 -8.000000e+000  1.281000e+001
      vertex  1.069853e+001 -7.391036e+000  8.000000e-001
    endloop
  endfacet
  facet normal -1.950903e-001 -9.807853e-001  0.000000e+000
    outer loop
      vertex  1.069853e+001 -7.391036e+000  8.000000e-001
      vertex  1.376000e+001 -8.000000e+000  1.281000e+001
      vertex  1.069853e+001 -7.391036e+000  1.281000e+001
    endloop
  endfacet
  facet normal -5.555702e-001 -8.314697e-001  -0.000000e+000
    outer loop
      vertex  1.069853e+001 -7.391036e+000  8.000000e-001
      vertex  1.069853e+001 -7.391036e+000  1.281000e+001
      vertex  8.103146e+000 -5.656854e+000  8.000000e-001
    endloop
  endfacet
  facet normal -5.555702e-001 -8.314697e-001  0.000000e+000
    outer loop
      vertex  8.103146e+000 -5.656854e+000  8.000000e-001
      vertex  1.069853e+001 -7.391036e+000  1.281000e+001
      vertex  8.103146e+000 -5.656854e+000  1.281000e+001
    endloop
  endfacet
  facet normal -8.314696e-001 -5.555702e-001  -0.000000e+000
    outer loop
      vertex  8.103146e+000 -5.656854e+000  8.000000e-001
      vertex  8.103146e+000 -5.656854e+000  1.281000e+001
      vertex  6.368964e+000 -3.061467e+000  8.000000e-001
    endloop
  endfacet
  facet normal -8.314696e-001 -5.555702e-001  0.000000e+000
    outer loop
      vertex  6.368964e+000 -3.061467e+000  8.000000e-001
      vertex  8.103146e+000 -5.656854e+000  1.281000e+001
      vertex  6.368964e+000 -3.061467e+000  1.281000e+001
    endloop
  endfacet
  facet normal -9.807853e-001 -1.950902e-001  -0.000000e+000
    outer loop
      vertex  6.368964e+000 -3.061467e+000  8.000000e-001
      vertex  6.368964e+000 -3.061467e+000  1.281000e+001
      vertex  5.760000e+000  9.796851e-016  8.000000e-001
    endloop
  endfacet
  facet normal -9.807853e-001 -1.950902e-001  0.000000e+000
    outer loop
      vertex  5.760000e+000  9.796851e-016  8.000000e-001
      vertex  6.368964e+000 -3.061467e+000  1.281000e+001
      vertex  5.760000e+000  9.796851e-016  1.281000e+001
    endloop
  endfacet
  facet normal -9.807853e-001  1.950902e-001  0.000000e+000
    outer loop
      vertex  5.760000e+000  9.796851e-016  8.000000e-001
      vertex  5.760000e+000  9.796851e-016  1.281000e+001
      vertex  6.368964e+000  3.061467e+000  8.000000e-001
    endloop
  endfacet
  facet normal -9.807853e-001  1.950902e-001  0.000000e+000
    outer loop
      vertex  6.368964e+000  3.061467e+000  8.000000e-001
      vertex  5.760000e+000  9.796851e-016  1.281000e+001
      vertex  6.368964e+000  3.061467e+000  1.281000e+001
    endloop
  endfacet
  facet normal -8.314696e-001  5.555702e-001  0.000000e+000
    outer loop
      vertex  6.368964e+000  3.061467e+000  8.000000e-001
      vertex  6.368964e+000  3.061467e+000  1.281000e+001
      vertex  8.103146e+000  5.656854e+000  8.000000e-001
    endloop
  endfacet
  facet normal -8.314696e-001  5.555702e-001  0.000000e+000
    outer loop
      vertex  8.103146e+000  5.656854e+000  8.000000e-001
      vertex  6.368964e+000  3.061467e+000  1.281000e+001
      vertex  8.103146e+000  5.656854e+000  1.281000e+001
    endloop
  endfacet
  facet normal -5.555702e-001  8.314697e-001  0.000000e+000
    outer loop
      vertex  8.103146e+000  5.656854e+000  8.000000e-001
      vertex  8.103146e+000  5.656854e+000  1.281000e+001
      vertex  1.069853e+001  7.391036e+000  8.000000e-001
    endloop
  endfacet
  facet normal -5.555702e-001  8.314697e-001  0.000000e+000
    outer loop
      vertex  1.069853e+001  7.391036e+000  8.000000e-001
      vertex  8.103146e+000  5.656854e+000  1.281000e+001
      vertex  1.069853e+001  7.391036e+000  1.281000e+001
    endloop
  endfacet
  facet normal -1.950903e-001  9.807853e-001  0.000000e+000
    outer loop
      vertex  1.069853e+001  7.391036e+000  8.000000e-001
      vertex  1.069853e+001  7.391036e+000  1.281000e+001
      vertex  1.376000e+001  8.000000e+000  8.000000e-001
    endloop
  endfacet
  facet normal -1.950903e-001  9.807853e-001  0.000000e+000
    outer loop
      vertex  1.376000e+001  8.000000e+000  8.000000e-001
      vertex  1.069853e+001  7.391036e+000  1.281000e+001
      vertex  1.376000e+001  8.000000e+000  1.281000e+001
    endloop
  endfacet
  facet normal  1.950903e-001  9.807853e-001  0.000000e+000
    outer loop
      vertex  1.376000e+001  8.000000e+000  8.000000e-001
      vertex  1.376000e+001  8.000000e+000  1.281000e+001
      vertex  1.682147e+001  7.391036e+000  8.000000e-001
    endloop
  endfacet
  facet normal  1.950903e-001  9.807853e-001  -0.000000e+000
    outer loop
      vertex  1.682147e+001  7.391036e+000  8.000000e-001
      vertex  1.376000e+001  8.000000e+000  1.281000e+001
      vertex  1.682147e+001  7.391036e+000  1.281000e+001
    endloop
  endfacet
  facet normal  5.555702e-001  8.314697e-001  0.000000e+000
    outer loop
      vertex  1.682147e+001  7.391036e+000  8.000000e-001
      vertex  1.682147e+001  7.391036e+000  1.281000e+001
      vertex  1.941685e+001  5.656854e+000  8.000000e-001
    endloop
  endfacet
  facet normal  5.555702e-001  8.314697e-001  -0.000000e+000
    outer loop
      vertex  1.941685e+001  5.656854e+000  8.000000e-001
      vertex  1.682147e+001  7.391036e+000  1.281000e+001
      vertex  1.941685e+001  5.656854e+000  1.281000e+001
    endloop
  endfacet
  facet normal  8.314698e-001  5.555699e-001  0.000000e+000
    outer loop
      vertex  1.941685e+001  5.656854e+000  8.000000e-001
      vertex  1.941685e+001  5.656854e+000  1.281000e+001
      vertex  2.115104e+001  3.061467e+000  8.000000e-001
    endloop
  endfacet
  facet normal  8.314698e-001  5.555699e-001  -0.000000e+000
    outer loop
      vertex  2.115104e+001  3.061467e+000  8.000000e-001
      vertex  1.941685e+001  5.656854e+000  1.281000e+001
      vertex  2.115104e+001  3.061467e+000  1.281000e+001
    endloop
  endfacet
  facet normal  9.807852e-001  1.950907e-001  0.000000e+000
    outer loop
      vertex  2.115104e+001  3.061467e+000  8.000000e-001
      vertex  2.115104e+001  3.061467e+000  1.281000e+001
      vertex  2.176000e+001  0.000000e+000  8.000000e-001
    endloop
  endfacet
  facet normal  9.807852e-001  1.950907e-001  -0.000000e+000
    outer loop
      vertex  2.176000e+001  0.000000e+000  8.000000e-001
      vertex  2.115104e+001  3.061467e+000  1.281000e+001
      vertex  2.176000e+001  0.000000e+000  1.281000e+001
    endloop
  endfacet
  facet normal  0.000000e+000  0.000000e+000  9.999999e-001
    outer loop
      vertex  1.069853e+001  7.391036e+000  1.281000e+001
      vertex  1.682147e+001  7.391036e+000  1.281000e+001
      vertex  1.376000e+001  8.000000e+000  1.281000e+001
    endloop
  endfacet
  facet normal  -0.000000e+000  0.000000e+000  1.000000e+000
    outer loop
      vertex  1.682147e+001  7.391036e+000  1.281000e+001
      vertex  1.069853e+001  7.391036e+000  1.281000e+001
      vertex  1.941685e+001  5.656854e+000  1.281000e+001
    endloop
  endfacet
  facet normal  0.000000e+000  0.000000e+000  1.000000e+000
    outer loop
      vertex  1.941685e+001  5.656854e+000  1.281000e+001
      vertex  1.069853e+001  7.391036e+000  1.281000e+001
      vertex  8.103146e+000  5.656854e+000  1.281000e+001
    endloop
  endfacet
  facet normal  -0.000000e+000  0.000000e+000  9.999999e-001
    outer loop
      vertex  1.941685e+001  5.656854e+000  1.281000e+001
      vertex  8.103146e+000  5.656854e+000  1.281000e+001
      vertex  2.115104e+001  3.061467e+000  1.281000e+001
    endloop
  endfacet
  facet normal  0.000000e+000  0.000000e+000  1.000000e+000
    outer loop
      vertex  2.115104e+001  3.061467e+000  1.281000e+001
      vertex  8.103146e+000  5.656854e+000  1.281000e+001
      vertex  6.368964e+000  3.061467e+000  1.281000e+001
    endloop
  endfacet
  facet normal  -0.000000e+000  0.000000e+000  9.999999e-001
    outer loop
      vertex  2.115104e+001  3.061467e+000  1.281000e+001
      vertex  6.368964e+000  3.061467e+000  1.281000e+001
      vertex  2.176000e+001  0.000000e+000  1.281000e+001
    endloop
  endfacet
  facet normal  0.000000e+000  0.000000e+000  1.000000e+000
    outer loop
      vertex  2.176000e+001  0.000000e+000  1.281000e+001
      vertex  6.368964e+000  3.061467e+000  1.281000e+001
      vertex  5.760000e+000  9.796851e-016  1.281000e+001
    endloop
  endfacet
  facet normal  0.000000e+000  0.000000e+000  1.000000e+000
    outer loop
      vertex  2.176000e+001  0.000000e+000  1.281000e+001
      vertex  5.760000e+000  9.796851e-016  1.281000e+001
      vertex  2.115104e+001 -3.061467e+000  1.281000e+001
    endloop
  endfacet
  facet normal  0.000000e+000  0.000000e+000  9.999999e-001
    outer loop
      vertex  2.115104e+001 -3.061467e+000  1.281000e+001
      vertex  5.760000e+000  9.796851e-016  1.281000e+001
      vertex  6.368964e+000 -3.061467e+000  1.281000e+001
    endloop
  endfacet
  facet normal  -0.000000e+000  0.000000e+000  1.000000e+000
    outer loop
      vertex  2.115104e+001 -3.061467e+000  1.281000e+001
      vertex  6.368964e+000 -3.061467e+000  1.281000e+001
      vertex  1.941685e+001 -5.656854e+000  1.281000e+001
    endloop
  endfacet
  facet normal  0.000000e+000  0.000000e+000  9.999999e-001
    outer loop
      vertex  1.941685e+001 -5.656854e+000  1.281000e+001
      vertex  6.368964e+000 -3.061467e+000  1.281000e+001
      vertex  8.103146e+000 -5.656854e+000  1.281000e+001
    endloop
  endfacet
  facet normal  -0.000000e+000  0.000000e+000  1.000000e+000
    outer loop
      vertex  1.941685e+001 -5.656854e+000  1.281000e+001
      vertex  8.103146e+000 -5.656854e+000  1.281000e+001
      vertex  1.682147e+001 -7.391036e+000  1.281000e+001
    endloop
  endfacet
  facet normal  0.000000e+000  0.000000e+000  1.000000e+000
    outer loop
      vertex  1.682147e+001 -7.391036e+000  1.281000e+001
      vertex  8.103146e+000 -5.656854e+000  1.281000e+001
      vertex  1.069853e+001 -7.391036e+000  1.281000e+001
    endloop
  endfacet
  facet normal  -0.000000e+000  0.000000e+000  9.999999e-001
    outer loop
      vertex  1.682147e+001 -7.391036e+000  1.281000e+001
      vertex  1.069853e+001 -7.391036e+000  1.281000e+001
      vertex  1.376000e+001 -8.000000e+000  1.281000e+001
    endloop
  endfacet
  facet normal  9.807853e-001 -1.950902e-001  0.000000e+000
    outer loop
      vertex -5.760000e+000  0.000000e+000  8.000000e-001
      vertex -5.760000e+000  0.000000e+000  1.281000e+001
      vertex -6.368964e+000 -3.061467e+000  8.000000e-001
    endloop
  endfacet
  facet normal  9.807853e-001 -1.950902e-001  0.000000e+000
    outer loop
      vertex -6.368964e+000 -3.061467e+000  8.000000e-001
      vertex -5.760000e+000  0.000000e+000  1.281000e+001
      vertex -6.368964e+000 -3.061467e+000  1.281000e+001
    endloop
  endfacet
  facet normal  8.314696e-001 -5.555702e-001  0.000000e+000
    outer loop
      vertex -6.368964e+000 -3.061467e+000  8.000000e-001
      vertex -6.368964e+000 -3.061467e+000  1.281000e+001
      vertex -8.103146e+000 -5.656854e+000  8.000000e-001
    endloop
  endfacet
  facet normal  8.314696e-001 -5.555702e-001  0.000000e+000
    outer loop
      vertex -8.103146e+000 -5.656854e+000  8.000000e-001
      vertex -6.368964e+000 -3.061467e+000  1.281000e+001
      vertex -8.103146e+000 -5.656854e+000  1.281000e+001
    endloop
  endfacet
  facet normal  5.555702e-001 -8.314697e-001  0.000000e+000
    outer loop
      vertex -8.103146e+000 -5.656854e+000  8.000000e-001
      vertex -8.103146e+000 -5.656854e+000  1.281000e+001
      vertex -1.069853e+001 -7.391036e+000  8.000000e-001
    endloop
  endfacet
  facet normal  5.555702e-001 -8.314697e-001  0.000000e+000
    outer loop
      vertex -1.069853e+001 -7.391036e+000  8.000000e-001
      vertex -8.103146e+000 -5.656854e+000  1.281000e+001
      vertex -1.069853e+001 -7.391036e+000  1.281000e+001
    endloop
  endfacet
  facet normal  1.950903e-001 -9.807853e-001  0.000000e+000
    outer loop
      vertex -1.069853e+001 -7.391036e+000  8.000000e-001
      vertex -1.069853e+001 -7.391036e+000  1.281000e+001
      vertex -1.376000e+001 -8.000000e+000  8.000000e-001
    endloop
  endfacet
  facet normal  1.950903e-001 -9.807853e-001  0.000000e+000
    outer loop
      vertex -1.376000e+001 -8.000000e+000  8.000000e-001
      vertex -1.069853e+001 -7.391036e+000  1.281000e+001
      vertex -1.376000e+001 -8.000000e+000  1.281000e+001
    endloop
  endfacet
  facet normal -1.950903e-001 -9.807853e-001  -0.000000e+000
    outer loop
      vertex -1.376000e+001 -8.000000e+000  8.000000e-001
      vertex -1.376000e+001 -8.000000e+000  1.281000e+001
      vertex -1.682147e+001 -7.391036e+000  8.000000e-001
    endloop
  endfacet
  facet normal -1.950903e-001 -9.807853e-001  0.000000e+000
    outer loop
      vertex -1.682147e+001 -7.391036e+000  8.000000e-001
      vertex -1.376000e+001 -8.000000e+000  1.281000e+001
      vertex -1.682147e+001 -7.391036e+000  1.281000e+001
    endloop
  endfacet
  facet normal -5.555702e-001 -8.314697e-001  -0.000000e+000
    outer loop
      vertex -1.682147e+001 -7.391036e+000  8.000000e-001
      vertex -1.682147e+001 -7.391036e+000  1.281000e+001
      vertex -1.941685e+001 -5.656854e+000  8.000000e-001
    endloop
  endfacet
  facet normal -5.555702e-001 -8.314697e-001  0.000000e+000
    outer loop
      vertex -1.941685e+001 -5.656854e+000  8.000000e-001
      vertex -1.682147e+001 -7.391036e+000  1.281000e+001
      vertex -1.941685e+001 -5.656854e+000  1.281000e+001
    endloop
  endfacet
  facet normal -8.314698e-001 -5.555699e-001  -0.000000e+000
    outer loop
      vertex -1.941685e+001 -5.656854e+000  8.000000e-001
      vertex -1.941685e+001 -5.656854e+000  1.281000e+001
      vertex -2.115104e+001 -3.061467e+000  8.000000e-001
    endloop
  endfacet
  facet normal -8.314698e-001 -5.555699e-001  0.000000e+000
    outer loop
      vertex -2.115104e+001 -3.061467e+000  8.000000e-001
      vertex -1.941685e+001 -5.656854e+000  1.281000e+001
      vertex -2.115104e+001 -3.061467e+000  1.281000e+001
    endloop
  endfacet
  facet normal -9.807852e-001 -1.950907e-001  -0.000000e+000
    outer loop
      vertex -2.115104e+001 -3.061467e+000  8.000000e-001
      vertex -2.115104e+001 -3.061467e+000  1.281000e+001
      vertex -2.176000e+001  9.796851e-016  8.000000e-001
    endloop
  endfacet
  facet normal -9.807852e-001 -1.950907e-001  0.000000e+000
    outer loop
      vertex -2.176000e+001  9.796851e-016  8.000000e-001
      vertex -2.115104e+001 -3.061467e+000  1.281000e+001
      vertex -2.176000e+001  9.796851e-016  1.281000e+001
    endloop
  endfacet
  facet normal -9.807852e-001  1.950907e-001  0.000000e+000
    outer loop
      vertex -2.176000e+001  9.796851e-016  8.000000e-001
      vertex -2.176000e+001  9.796851e-016  1.281000e+001
      vertex -2.115104e+001  3.061467e+000  8.000000e-001
    endloop
  endfacet
  facet normal -9.807852e-001  1.950907e-001  0.000000e+000
    outer loop
      vertex -2.115104e+001  3.061467e+000  8.000000e-001
      vertex -2.176000e+001  9.796851e-016  1.281000e+001
      vertex -2.115104e+001  3.061467e+000  1.281000e+001
    endloop
  endfacet
  facet normal -8.314698e-001  5.555699e-001  0.000000e+000
    outer loop
      vertex -2.115104e+001  3.061467e+000  8.000000e-001
      vertex -2.115104e+001  3.061467e+000  1.281000e+001
      vertex -1.941685e+001  5.656854e+000  8.000000e-001
    endloop
  endfacet
  facet normal -8.314698e-001  5.555699e-001  0.000000e+000
    outer loop
      vertex -1.941685e+001  5.656854e+000  8.000000e-001
      vertex -2.115104e+001  3.061467e+000  1.281000e+001
      vertex -1.941685e+001  5.656854e+000  1.281000e+001
    endloop
  endfacet
  facet normal -5.555702e-001  8.314697e-001  0.000000e+000
    outer loop
      vertex -1.941685e+001  5.656854e+000  8.000000e-001
      vertex -1.941685e+001  5.656854e+000  1.281000e+001
      vertex -1.682147e+001  7.391036e+000  8.000000e-001
    endloop
  endfacet
  facet normal -5.555702e-001  8.314697e-001  0.000000e+000
    outer loop
      vertex -1.682147e+001  7.391036e+000  8.000000e-001
      vertex -1.941685e+001  5.656854e+000  1.281000e+001
      vertex -1.682147e+001  7.391036e+000  1.281000e+001
    endloop
  endfacet
  facet normal -1.950903e-001  9.807853e-001  0.000000e+000
    outer loop
      vertex -1.682147e+001  7.391036e+000  8.000000e-001
      vertex -1.682147e+001  7.391036e+000  1.281000e+001
      vertex -1.376000e+001  8.000000e+000  8.000000e-001
    endloop
  endfacet
  facet normal -1.950903e-001  9.807853e-001  0.000000e+000
    outer loop
      vertex -1.376000e+001  8.000000e+000  8.000000e-001
      vertex -1.682147e+001  7.391036e+000  1.281000e+001
      vertex -1.376000e+001  8.000000e+000  1.281000e+001
    endloop
  endfacet
  facet normal  1.950903e-001  9.807853e-001  0.000000e+000
    outer loop
      vertex -1.376000e+001  8.000000e+000  8.000000e-001
      vertex -1.376000e+001  8.000000e+000  1.281000e+001
      vertex -1.069853e+001  7.391036e+000  8.000000e-001
    endloop
  endfacet
  facet normal  1.950903e-001  9.807853e-001  -0.000000e+000
    outer loop
      vertex -1.069853e+001  7.391036e+000  8.000000e-001
      vertex -1.376000e+001  8.000000e+000  1.281000e+001
      vertex -1.069853e+001  7.391036e+000  1.281000e+001
    endloop
  endfacet
  facet normal  5.555702e-001  8.314697e-001  0.000000e+000
    outer loop
      vertex -1.069853e+001  7.391036e+000  8.000000e-001
      vertex -1.069853e+001  7.391036e+000  1.281000e+001
      vertex -8.103146e+000  5.656854e+000  8.000000e-001
    endloop
  endfacet
  facet normal  5.555702e-001  8.314697e-001  -0.000000e+000
    outer loop
      vertex -8.103146e+000  5.656854e+000  8.000000e-001
      vertex -1.069853e+001  7.391036e+000  1.281000e+001
      vertex -8.103146e+000  5.656854e+000  1.281000e+001
    endloop
  endfacet
  facet normal  8.314696e-001  5.555702e-001  0.000000e+000
    outer loop
      vertex -8.103146e+000  5.656854e+000  8.000000e-001
      vertex -8.103146e+000  5.656854e+000  1.281000e+001
      vertex -6.368964e+000  3.061467e+000  8.000000e-001
    endloop
  endfacet
  facet normal  8.314696e-001  5.555702e-001  -0.000000e+000
    outer loop
      vertex -6.368964e+000  3.061467e+000  8.000000e-001
      vertex -8.103146e+000  5.656854e+000  1.281000e+001
      vertex -6.368964e+000  3.061467e+000  1.281000e+001
    endloop
  endfacet
  facet normal  9.807853e-001  1.950902e-001  0.000000e+000
    outer loop
      vertex -6.368964e+000  3.061467e+000  8.000000e-001
      vertex -6.368964e+000  3.061467e+000  1.281000e+001
      vertex -5.760000e+000  0.000000e+000  8.000000e-001
    endloop
  endfacet
  facet normal  9.807853e-001  1.950902e-001  -0.000000e+000
    outer loop
      vertex -5.760000e+000  0.000000e+000  8.000000e-001
      vertex -6.368964e+000  3.061467e+000  1.281000e+001
      vertex -5.760000e+000  0.000000e+000  1.281000e+001
    endloop
  endfacet
  facet normal  0.000000e+000  0.000000e+000  9.999999e-001
    outer loop
      vertex -1.682147e+001  7.391036e+000  1.281000e+001
      vertex -1.069853e+001  7.391036e+000  1.281000e+001
      vertex -1.376000e+001  8.000000e+000  1.281000e+001
    endloop
  endfacet
  facet normal  -0.000000e+000  0.000000e+000  1.000000e+000
    outer loop
      vertex -1.069853e+001  7.391036e+000  1.281000e+001
      vertex -1.682147e+001  7.391036e+000  1.281000e+001
      vertex -8.103146e+000  5.656854e+000  1.281000e+001
    endloop
  endfacet
  facet normal  0.000000e+000  0.000000e+000  1.000000e+000
    outer loop
      vertex -8.103146e+000  5.656854e+000  1.281000e+001
      vertex -1.682147e+001  7.391036e+000  1.281000e+001
      vertex -1.941685e+001  5.656854e+000  1.281000e+001
    endloop
  endfacet
  facet normal  -0.000000e+000  0.000000e+000  9.999999e-001
    outer loop
      vertex -8.103146e+000  5.656854e+000  1.281000e+001
      vertex -1.941685e+001  5.656854e+000  1.281000e+001
      vertex -6.368964e+000  3.061467e+000  1.281000e+001
    endloop
  endfacet
  facet normal  0.000000e+000  0.000000e+000  1.000000e+000
    outer loop
      vertex -6.368964e+000  3.061467e+000  1.281000e+001
      vertex -1.941685e+001  5.656854e+000  1.281000e+001
      vertex -2.115104e+001  3.061467e+000  1.281000e+001
    endloop
  endfacet
  facet normal  -0.000000e+000  0.000000e+000  9.999999e-001
    outer loop
      vertex -6.368964e+000  3.061467e+000  1.281000e+001
      vertex -2.115104e+001  3.061467e+000  1.281000e+001
      vertex -5.760000e+000  0.000000e+000  1.281000e+001
    endloop
  endfacet
  facet normal  0.000000e+000  0.000000e+000  1.000000e+000
    outer loop
      vertex -5.760000e+000  0.000000e+000  1.281000e+001
      vertex -2.115104e+001  3.061467e+000  1.281000e+001
      vertex -2.176000e+001  9.796851e-016  1.281000e+001
    endloop
  endfacet
  facet normal  0.000000e+000  0.000000e+000  1.000000e+000
    outer loop
      vertex -5.760000e+000  0.000000e+000  1.281000e+001
      vertex -2.176000e+001  9.796851e-016  1.281000e+001
      vertex -6.368964e+000 -3.061467e+000  1.281000e+001
    endloop
  endfacet
  facet normal  0.000000e+000  0.000000e+000  9.999999e-001
    outer loop
      vertex -6.368964e+000 -3.061467e+000  1.281000e+001
      vertex -2.176000e+001  9.796851e-016  1.281000e+001
      vertex -2.115104e+001 -3.061467e+000  1.281000e+001
    endloop
  endfacet
  facet normal  -0.000000e+000  0.000000e+000  1.000000e+000
    outer loop
      vertex -6.368964e+000 -3.061467e+000  1.281000e+001
      vertex -2.115104e+001 -3.061467e+000  1.281000e+001
      vertex -8.103146e+000 -5.656854e+000  1.281000e+001
    endloop
  endfacet
  facet normal  0.000000e+000  0.000000e+000  9.999999e-001
    outer loop
      vertex -8.103146e+000 -5.656854e+000  1.281000e+001
      vertex -2.115104e+001 -3.061467e+000  1.281000e+001
      vertex -1.941685e+001 -5.656854e+000  1.281000e+001
    endloop
  endfacet
  facet normal  -0.000000e+000  0.000000e+000  1.000000e+000
    outer loop
      vertex -8.103146e+000 -5.656854e+000  1.281000e+001
      vertex -1.941685e+001 -5.656854e+000  1.281000e+001
      vertex -1.069853e+001 -7.391036e+000  1.281000e+001
    endloop
  endfacet
  facet normal  0.000000e+000  0.000000e+000  1.000000e+000
    outer loop
      vertex -1.069853e+001 -7.391036e+000  1.281000e+001
      vertex -1.941685e+001 -5.656854e+000  1.281000e+001
      vertex -1.682147e+001 -7.391036e+000  1.281000e+001
    endloop
  endfacet
  facet normal  -0.000000e+000  0.000000e+000  9.999999e-001
    outer loop
      vertex -1.069853e+001 -7.391036e+000  1.281000e+001
      vertex -1.682147e+001 -7.391036e+000  1.281000e+001
      vertex -1.376000e+001 -8.000000e+000  1.281000e+001
    endloop
  endfacet
  facet normal  0.000000e+000  0.000000e+000 -1.000000e+000
    outer loop
      vertex -2.250000e+001 -1.000000e+001 -8.000000e-001
      vertex -2.250000e+001  1.000000e+001 -8.000000e-001
      vertex  2.250000e+001 -1.000000e+001 -8.000000e-001
    endloop
  endfacet
  facet normal  0.000000e+000  0.000000e+000 -1.000000e+000
    outer loop
      vertex  2.250000e+001 -1.000000e+001 -8.000000e-001
      vertex -2.250000e+001  1.000000e+001 -8.000000e-001
      vertex  2.250000e+001  1.000000e+001 -8.000000e-001
    endloop
  endfacet
  facet normal  1.000000e+000  -0.000000e+000  0.000000e+000
    outer loop
      vertex  2.250000e+001  1.000000e+001  8.000000e-001
      vertex  2.250000e+001 -1.000000e+001  8.000000e-001
      vertex  2.250000e+001  1.000000e+001 -8.000000e-001
    endloop
  endfacet
  facet normal  1.000000e+000  0.000000e+000  0.000000e+000
    outer loop
      vertex  2.250000e+001  1.000000e+001 -8.000000e-001
      vertex  2.250000e+001 -1.000000e+001  8.000000e-001
      vertex  2.250000e+001 -1.000000e+001 -8.000000e-001
    endloop
  endfacet
  facet normal  0.000000e+000 -1.000000e+000  0.000000e+000
    outer loop
      vertex  2.250000e+001 -1.000000e+001  8.000000e-001
      vertex -2.250000e+001 -1.000000e+001  8.000000e-001
      vertex  2.250000e+001 -1.000000e+001 -8.000000e-001
    endloop
  endfacet
  facet normal  0.000000e+000 -1.000000e+000  0.000000e+000
    outer loop
      vertex  2.250000e+001 -1.000000e+001 -8.000000e-001
      vertex -2.250000e+001 -1.000000e+001  8.000000e-001
      vertex -2.250000e+001 -1.000000e+001 -8.000000e-001
    endloop
  endfacet
  facet normal -1.000000e+000  -0.000000e+000  0.000000e+000
    outer loop
      vertex -2.250000e+001 -1.000000e+001  8.000000e-001
      vertex -2.250000e+001  1.000000e+001  8.000000e-001
      vertex -2.250000e+001 -1.000000e+001 -8.000000e-001
    endloop
  endfacet
  facet normal -1.000000e+000  0.000000e+000  0.000000e+000
    outer loop
      vertex -2.250000e+001 -1.000000e+001 -8.000000e-001
      vertex -2.250000e+001  1.000000e+001  8.000000e-001
      vertex -2.250000e+001  1.000000e+001 -8.000000e-001
    endloop
  endfacet
  facet normal  0.000000e+000  1.000000e+000  0.000000e+000
    outer loop
      vertex -2.250000e+001  1.000000e+001  8.000000e-001
      vertex  2.250000e+001  1.000000e+001  8.000000e-001
      vertex -2.250000e+001  1.000000e+001 -8.000000e-001
    endloop
  endfacet
  facet normal  0.000000e+000  1.000000e+000  0.000000e+000
    outer loop
      vertex -2.250000e+001  1.000000e+001 -8.000000e-001
      vertex  2.250000e+001  1.000000e+001  8.000000e-001
      vertex  2.250000e+001  1.000000e+001 -8.000000e-001
    endloop
  endfacet
endsolid CATIA STL
