solid CATIA STL
  facet normal  0.000000e+000  0.000000e+000  1.000000e+000
    outer loop
      vertex -2.150000e+001 -1.050000e+001  7.000000e+000
      vertex  2.150000e+001 -1.050000e+001  7.000000e+000
      vertex -2.150000e+001  1.050000e+001  7.000000e+000
    endloop
  endfacet
  facet normal  -0.000000e+000  0.000000e+000  1.000000e+000
    outer loop
      vertex -2.150000e+001  1.050000e+001  7.000000e+000
      vertex  2.150000e+001 -1.050000e+001  7.000000e+000
      vertex  2.150000e+001  1.050000e+001  7.000000e+000
    endloop
  endfacet
  facet normal  0.000000e+000  0.000000e+000 -1.000000e+000
    outer loop
      vertex -2.150000e+001 -1.050000e+001 -7.000000e+000
      vertex -2.150000e+001  1.050000e+001 -7.000000e+000
      vertex  2.150000e+001 -1.050000e+001 -7.000000e+000
    endloop
  endfacet
  facet normal  0.000000e+000  0.000000e+000 -1.000000e+000
    outer loop
      vertex  2.150000e+001 -1.050000e+001 -7.000000e+000
      vertex -2.150000e+001  1.050000e+001 -7.000000e+000
      vertex  2.150000e+001  1.050000e+001 -7.000000e+000
    endloop
  endfacet
  facet normal  1.000000e+000  -0.000000e+000  0.000000e+000
    outer loop
      vertex  2.150000e+001  1.050000e+001  7.000000e+000
      vertex  2.150000e+001 -1.050000e+001  7.000000e+000
      vertex  2.150000e+001  1.050000e+001 -7.000000e+000
    endloop
  endfacet
  facet normal  1.000000e+000  0.000000e+000  0.000000e+000
    outer loop
      vertex  2.150000e+001  1.050000e+001 -7.000000e+000
      vertex  2.150000e+001 -1.050000e+001  7.000000e+000
      vertex  2.150000e+001 -1.050000e+001 -7.000000e+000
    endloop
  endfacet
  facet normal  0.000000e+000 -1.000000e+000  0.000000e+000
    outer loop
      vertex  2.150000e+001 -1.050000e+001  7.000000e+000
      vertex -2.150000e+001 -1.050000e+001  7.000000e+000
      vertex  2.150000e+001 -1.050000e+001 -7.000000e+000
    endloop
  endfacet
  facet normal  0.000000e+000 -1.000000e+000  0.000000e+000
    outer loop
      vertex  2.150000e+001 -1.050000e+001 -7.000000e+000
      vertex -2.150000e+001 -1.050000e+001  7.000000e+000
      vertex -2.150000e+001 -1.050000e+001 -7.000000e+000
    endloop
  endfacet
  facet normal -1.000000e+000  -0.000000e+000  0.000000e+000
    outer loop
      vertex -2.150000e+001 -1.050000e+001  7.000000e+000
      vertex -2.150000e+001  1.050000e+001  7.000000e+000
      vertex -2.150000e+001 -1.050000e+001 -7.000000e+000
    endloop
  endfacet
  facet normal -1.000000e+000  0.000000e+000  0.000000e+000
    outer loop
      vertex -2.150000e+001 -1.050000e+001 -7.000000e+000
      vertex -2.150000e+001  1.050000e+001  7.000000e+000
      vertex -2.150000e+001  1.050000e+001 -7.000000e+000
    endloop
  endfacet
  facet normal  0.000000e+000  1.000000e+000  0.000000e+000
    outer loop
      vertex -2.150000e+001  1.050000e+001  7.000000e+000
      vertex  2.150000e+001  1.050000e+001  7.000000e+000
      vertex -2.150000e+001  1.050000e+001 -7.000000e+000
    endloop
  endfacet
  facet normal  0.000000e+000  1.000000e+000  0.000000e+000
    outer loop
      vertex -2.150000e+001  1.050000e+001 -7.000000e+000
      vertex  2.150000e+001  1.050000e+001  7.000000e+000
      vertex  2.150000e+001  1.050000e+001 -7.000000e+000
    endloop
  endfacet
endsolid CATIA STL
