solid CATIA STL
  facet normal  0.000000e+000  0.000000e+000  9.999999e-001
    outer loop
      vertex -2.137500e+000  3.702259e+000  4.000000e+000
      vertex -3.702259e+000  2.137500e+000  4.000000e+000
      vertex -8.575221e-001  2.639182e+000  4.000000e+000
    endloop
  endfacet
  facet normal  -0.000000e+000  0.000000e+000  1.000000e+000
    outer loop
      vertex -2.245022e+000 -1.631104e+000  4.000000e+000
      vertex -3.702259e+000 -2.137500e+000  4.000000e+000
      vertex -8.575221e-001 -2.639182e+000  4.000000e+000
    endloop
  endfacet
  facet normal  0.000000e+000  -0.000000e+000  1.000000e+000
    outer loop
      vertex -3.702259e+000 -2.137500e+000  4.000000e+000
      vertex -2.137500e+000 -3.702259e+000  4.000000e+000
      vertex -8.575221e-001 -2.639182e+000  4.000000e+000
    endloop
  endfacet
  facet normal  0.000000e+000  0.000000e+000  9.999999e-001
    outer loop
      vertex -8.575221e-001 -2.639182e+000  4.000000e+000
      vertex -2.137500e+000 -3.702259e+000  4.000000e+000
      vertex -7.852788e-016 -4.275000e+000  4.000000e+000
    endloop
  endfacet
  facet normal  0.000000e+000  -0.000000e+000  1.000000e+000
    outer loop
      vertex -8.575221e-001 -2.639182e+000  4.000000e+000
      vertex -7.852788e-016 -4.275000e+000  4.000000e+000
      vertex  8.575221e-001 -2.639182e+000  4.000000e+000
    endloop
  endfacet
  facet normal  0.000000e+000  0.000000e+000  9.999999e-001
    outer loop
      vertex  8.575221e-001 -2.639182e+000  4.000000e+000
      vertex -7.852788e-016 -4.275000e+000  4.000000e+000
      vertex  2.137500e+000 -3.702259e+000  4.000000e+000
    endloop
  endfacet
  facet normal  0.000000e+000  -0.000000e+000  1.000000e+000
    outer loop
      vertex  8.575221e-001 -2.639182e+000  4.000000e+000
      vertex  2.137500e+000 -3.702259e+000  4.000000e+000
      vertex  3.702259e+000 -2.137500e+000  4.000000e+000
    endloop
  endfacet
  facet normal  0.000000e+000  0.000000e+000  1.000000e+000
    outer loop
      vertex  2.245022e+000  1.631104e+000  4.000000e+000
      vertex  3.702259e+000  2.137500e+000  4.000000e+000
      vertex  8.575221e-001  2.639182e+000  4.000000e+000
    endloop
  endfacet
  facet normal  -0.000000e+000  0.000000e+000  1.000000e+000
    outer loop
      vertex  8.575221e-001  2.639182e+000  4.000000e+000
      vertex  3.702259e+000  2.137500e+000  4.000000e+000
      vertex  2.137500e+000  3.702259e+000  4.000000e+000
    endloop
  endfacet
  facet normal  0.000000e+000  0.000000e+000  1.000000e+000
    outer loop
      vertex  8.575221e-001  2.639182e+000  4.000000e+000
      vertex  2.137500e+000  3.702259e+000  4.000000e+000
      vertex -8.575221e-001  2.639182e+000  4.000000e+000
    endloop
  endfacet
  facet normal  0.000000e+000  0.000000e+000  1.000000e+000
    outer loop
      vertex -8.575221e-001  2.639182e+000  4.000000e+000
      vertex  2.137500e+000  3.702259e+000  4.000000e+000
      vertex  2.617596e-016  4.275000e+000  4.000000e+000
    endloop
  endfacet
  facet normal  0.000000e+000  0.000000e+000  9.999999e-001
    outer loop
      vertex -8.575221e-001  2.639182e+000  4.000000e+000
      vertex  2.617596e-016  4.275000e+000  4.000000e+000
      vertex -2.137500e+000  3.702259e+000  4.000000e+000
    endloop
  endfacet
  facet normal  0.000000e+000  0.000000e+000  1.000000e+000
    outer loop
      vertex -3.702259e+000 -2.137500e+000  4.000000e+000
      vertex -2.245022e+000 -1.631104e+000  4.000000e+000
      vertex -4.275000e+000  5.235192e-016  4.000000e+000
    endloop
  endfacet
  facet normal  0.000000e+000  0.000000e+000  1.000000e+000
    outer loop
      vertex -4.275000e+000  5.235192e-016  4.000000e+000
      vertex -2.245022e+000 -1.631104e+000  4.000000e+000
      vertex -2.775000e+000  3.398283e-016  4.000000e+000
    endloop
  endfacet
  facet normal  0.000000e+000  0.000000e+000  1.000000e+000
    outer loop
      vertex -4.275000e+000  5.235192e-016  4.000000e+000
      vertex -2.775000e+000  3.398283e-016  4.000000e+000
      vertex -3.702259e+000  2.137500e+000  4.000000e+000
    endloop
  endfacet
  facet normal  0.000000e+000  0.000000e+000  9.999999e-001
    outer loop
      vertex -3.702259e+000  2.137500e+000  4.000000e+000
      vertex -2.775000e+000  3.398283e-016  4.000000e+000
      vertex -2.245022e+000  1.631104e+000  4.000000e+000
    endloop
  endfacet
  facet normal  0.000000e+000  -0.000000e+000  1.000000e+000
    outer loop
      vertex -3.702259e+000  2.137500e+000  4.000000e+000
      vertex -2.245022e+000  1.631104e+000  4.000000e+000
      vertex -8.575221e-001  2.639182e+000  4.000000e+000
    endloop
  endfacet
  facet normal  -0.000000e+000  0.000000e+000  1.000000e+000
    outer loop
      vertex  3.702259e+000  2.137500e+000  4.000000e+000
      vertex  2.245022e+000  1.631104e+000  4.000000e+000
      vertex  4.275000e+000  0.000000e+000  4.000000e+000
    endloop
  endfacet
  facet normal  0.000000e+000  0.000000e+000  1.000000e+000
    outer loop
      vertex  4.275000e+000  0.000000e+000  4.000000e+000
      vertex  2.245022e+000  1.631104e+000  4.000000e+000
      vertex  2.775000e+000  0.000000e+000  4.000000e+000
    endloop
  endfacet
  facet normal  -0.000000e+000  0.000000e+000  1.000000e+000
    outer loop
      vertex  4.275000e+000  0.000000e+000  4.000000e+000
      vertex  2.775000e+000  0.000000e+000  4.000000e+000
      vertex  3.702259e+000 -2.137500e+000  4.000000e+000
    endloop
  endfacet
  facet normal  0.000000e+000  0.000000e+000  9.999999e-001
    outer loop
      vertex  3.702259e+000 -2.137500e+000  4.000000e+000
      vertex  2.775000e+000  0.000000e+000  4.000000e+000
      vertex  2.245022e+000 -1.631104e+000  4.000000e+000
    endloop
  endfacet
  facet normal  0.000000e+000  0.000000e+000  1.000000e+000
    outer loop
      vertex  3.702259e+000 -2.137500e+000  4.000000e+000
      vertex  2.245022e+000 -1.631104e+000  4.000000e+000
      vertex  8.575221e-001 -2.639182e+000  4.000000e+000
    endloop
  endfacet
  facet normal  0.000000e+000  0.000000e+000 -9.999999e-001
    outer loop
      vertex -8.575221e-001  2.639182e+000  0.000000e+000
      vertex -3.702259e+000  2.137500e+000  0.000000e+000
      vertex -2.137500e+000  3.702259e+000  0.000000e+000
    endloop
  endfacet
  facet normal  0.000000e+000  0.000000e+000 -1.000000e+000
    outer loop
      vertex -8.575221e-001 -2.639182e+000  0.000000e+000
      vertex -3.702259e+000 -2.137500e+000  0.000000e+000
      vertex -2.245022e+000 -1.631104e+000  0.000000e+000
    endloop
  endfacet
  facet normal  0.000000e+000  0.000000e+000 -1.000000e+000
    outer loop
      vertex  3.702259e+000 -2.137500e+000  0.000000e+000
      vertex  2.137500e+000 -3.702259e+000  0.000000e+000
      vertex  8.575221e-001 -2.639182e+000  0.000000e+000
    endloop
  endfacet
  facet normal  0.000000e+000  -0.000000e+000 -9.999999e-001
    outer loop
      vertex  8.575221e-001 -2.639182e+000  0.000000e+000
      vertex  2.137500e+000 -3.702259e+000  0.000000e+000
      vertex -7.852788e-016 -4.275000e+000  0.000000e+000
    endloop
  endfacet
  facet normal  0.000000e+000  0.000000e+000 -1.000000e+000
    outer loop
      vertex  8.575221e-001 -2.639182e+000  0.000000e+000
      vertex -7.852788e-016 -4.275000e+000  0.000000e+000
      vertex -8.575221e-001 -2.639182e+000  0.000000e+000
    endloop
  endfacet
  facet normal  0.000000e+000  -0.000000e+000 -9.999999e-001
    outer loop
      vertex -8.575221e-001 -2.639182e+000  0.000000e+000
      vertex -7.852788e-016 -4.275000e+000  0.000000e+000
      vertex -2.137500e+000 -3.702259e+000  0.000000e+000
    endloop
  endfacet
  facet normal  0.000000e+000  0.000000e+000 -1.000000e+000
    outer loop
      vertex -8.575221e-001 -2.639182e+000  0.000000e+000
      vertex -2.137500e+000 -3.702259e+000  0.000000e+000
      vertex -3.702259e+000 -2.137500e+000  0.000000e+000
    endloop
  endfacet
  facet normal  0.000000e+000  0.000000e+000 -9.999999e-001
    outer loop
      vertex -2.137500e+000  3.702259e+000  0.000000e+000
      vertex  2.617596e-016  4.275000e+000  0.000000e+000
      vertex -8.575221e-001  2.639182e+000  0.000000e+000
    endloop
  endfacet
  facet normal  0.000000e+000  0.000000e+000 -1.000000e+000
    outer loop
      vertex -8.575221e-001  2.639182e+000  0.000000e+000
      vertex  2.617596e-016  4.275000e+000  0.000000e+000
      vertex  2.137500e+000  3.702259e+000  0.000000e+000
    endloop
  endfacet
  facet normal  0.000000e+000  0.000000e+000 -1.000000e+000
    outer loop
      vertex -8.575221e-001  2.639182e+000  0.000000e+000
      vertex  2.137500e+000  3.702259e+000  0.000000e+000
      vertex  8.575221e-001  2.639182e+000  0.000000e+000
    endloop
  endfacet
  facet normal  0.000000e+000  0.000000e+000 -1.000000e+000
    outer loop
      vertex  8.575221e-001  2.639182e+000  0.000000e+000
      vertex  2.137500e+000  3.702259e+000  0.000000e+000
      vertex  3.702259e+000  2.137500e+000  0.000000e+000
    endloop
  endfacet
  facet normal  -0.000000e+000  0.000000e+000 -1.000000e+000
    outer loop
      vertex  8.575221e-001  2.639182e+000  0.000000e+000
      vertex  3.702259e+000  2.137500e+000  0.000000e+000
      vertex  2.245022e+000  1.631104e+000  0.000000e+000
    endloop
  endfacet
  facet normal  0.000000e+000  0.000000e+000 -1.000000e+000
    outer loop
      vertex -8.575221e-001  2.639182e+000  0.000000e+000
      vertex -2.245022e+000  1.631104e+000  0.000000e+000
      vertex -3.702259e+000  2.137500e+000  0.000000e+000
    endloop
  endfacet
  facet normal  0.000000e+000  0.000000e+000 -9.999999e-001
    outer loop
      vertex -3.702259e+000  2.137500e+000  0.000000e+000
      vertex -2.245022e+000  1.631104e+000  0.000000e+000
      vertex -2.775000e+000  3.398283e-016  0.000000e+000
    endloop
  endfacet
  facet normal  0.000000e+000  0.000000e+000 -1.000000e+000
    outer loop
      vertex -3.702259e+000  2.137500e+000  0.000000e+000
      vertex -2.775000e+000  3.398283e-016  0.000000e+000
      vertex -4.275000e+000  5.235192e-016  0.000000e+000
    endloop
  endfacet
  facet normal  0.000000e+000  0.000000e+000 -1.000000e+000
    outer loop
      vertex -4.275000e+000  5.235192e-016  0.000000e+000
      vertex -2.775000e+000  3.398283e-016  0.000000e+000
      vertex -2.245022e+000 -1.631104e+000  0.000000e+000
    endloop
  endfacet
  facet normal  -0.000000e+000  0.000000e+000 -1.000000e+000
    outer loop
      vertex -4.275000e+000  5.235192e-016  0.000000e+000
      vertex -2.245022e+000 -1.631104e+000  0.000000e+000
      vertex -3.702259e+000 -2.137500e+000  0.000000e+000
    endloop
  endfacet
  facet normal  0.000000e+000  -0.000000e+000 -1.000000e+000
    outer loop
      vertex  8.575221e-001 -2.639182e+000  0.000000e+000
      vertex  2.245022e+000 -1.631104e+000  0.000000e+000
      vertex  3.702259e+000 -2.137500e+000  0.000000e+000
    endloop
  endfacet
  facet normal  0.000000e+000  0.000000e+000 -9.999999e-001
    outer loop
      vertex  3.702259e+000 -2.137500e+000  0.000000e+000
      vertex  2.245022e+000 -1.631104e+000  0.000000e+000
      vertex  2.775000e+000  0.000000e+000  0.000000e+000
    endloop
  endfacet
  facet normal  0.000000e+000  0.000000e+000 -1.000000e+000
    outer loop
      vertex  3.702259e+000 -2.137500e+000  0.000000e+000
      vertex  2.775000e+000  0.000000e+000  0.000000e+000
      vertex  4.275000e+000  0.000000e+000  0.000000e+000
    endloop
  endfacet
  facet normal  0.000000e+000  0.000000e+000 -1.000000e+000
    outer loop
      vertex  4.275000e+000  0.000000e+000  0.000000e+000
      vertex  2.775000e+000  0.000000e+000  0.000000e+000
      vertex  2.245022e+000  1.631104e+000  0.000000e+000
    endloop
  endfacet
  facet normal  0.000000e+000  0.000000e+000 -1.000000e+000
    outer loop
      vertex  4.275000e+000  0.000000e+000  0.000000e+000
      vertex  2.245022e+000  1.631104e+000  0.000000e+000
      vertex  3.702259e+000  2.137500e+000  0.000000e+000
    endloop
  endfacet
  facet normal  5.877853e-001 -8.090170e-001  0.000000e+000
    outer loop
      vertex -8.575221e-001  2.639182e+000  0.000000e+000
      vertex -2.245022e+000  1.631104e+000  4.000000e+000
      vertex -2.245022e+000  1.631104e+000  0.000000e+000
    endloop
  endfacet
  facet normal  9.510565e-001 -3.090171e-001  0.000000e+000
    outer loop
      vertex -2.245022e+000  1.631104e+000  0.000000e+000
      vertex -2.245022e+000  1.631104e+000  4.000000e+000
      vertex -2.775000e+000  3.398283e-016  4.000000e+000
    endloop
  endfacet
  facet normal  9.510565e-001 -3.090171e-001  0.000000e+000
    outer loop
      vertex -2.245022e+000  1.631104e+000  0.000000e+000
      vertex -2.775000e+000  3.398283e-016  4.000000e+000
      vertex -2.775000e+000  3.398283e-016  0.000000e+000
    endloop
  endfacet
  facet normal  5.877853e-001 -8.090170e-001  0.000000e+000
    outer loop
      vertex -2.245022e+000  1.631104e+000  4.000000e+000
      vertex -8.575221e-001  2.639182e+000  0.000000e+000
      vertex -8.575221e-001  2.639182e+000  4.000000e+000
    endloop
  endfacet
  facet normal  0.000000e+000 -1.000000e+000  0.000000e+000
    outer loop
      vertex -8.575221e-001  2.639182e+000  4.000000e+000
      vertex -8.575221e-001  2.639182e+000  0.000000e+000
      vertex  8.575221e-001  2.639182e+000  0.000000e+000
    endloop
  endfacet
  facet normal  0.000000e+000 -1.000000e+000  0.000000e+000
    outer loop
      vertex -8.575221e-001  2.639182e+000  4.000000e+000
      vertex  8.575221e-001  2.639182e+000  0.000000e+000
      vertex  8.575221e-001  2.639182e+000  4.000000e+000
    endloop
  endfacet
  facet normal -5.877853e-001 -8.090170e-001  -0.000000e+000
    outer loop
      vertex  8.575221e-001  2.639182e+000  4.000000e+000
      vertex  8.575221e-001  2.639182e+000  0.000000e+000
      vertex  2.245022e+000  1.631104e+000  0.000000e+000
    endloop
  endfacet
  facet normal -5.877853e-001 -8.090170e-001  0.000000e+000
    outer loop
      vertex  8.575221e-001  2.639182e+000  4.000000e+000
      vertex  2.245022e+000  1.631104e+000  0.000000e+000
      vertex  2.245022e+000  1.631104e+000  4.000000e+000
    endloop
  endfacet
  facet normal -9.510565e-001 -3.090171e-001  -0.000000e+000
    outer loop
      vertex  2.245022e+000  1.631104e+000  4.000000e+000
      vertex  2.245022e+000  1.631104e+000  0.000000e+000
      vertex  2.775000e+000  0.000000e+000  0.000000e+000
    endloop
  endfacet
  facet normal -9.510565e-001 -3.090171e-001  0.000000e+000
    outer loop
      vertex  2.245022e+000  1.631104e+000  4.000000e+000
      vertex  2.775000e+000  0.000000e+000  0.000000e+000
      vertex  2.775000e+000  0.000000e+000  4.000000e+000
    endloop
  endfacet
  facet normal -5.877853e-001  8.090170e-001  0.000000e+000
    outer loop
      vertex  8.575221e-001 -2.639182e+000  0.000000e+000
      vertex  2.245022e+000 -1.631104e+000  4.000000e+000
      vertex  2.245022e+000 -1.631104e+000  0.000000e+000
    endloop
  endfacet
  facet normal -9.510565e-001  3.090171e-001  0.000000e+000
    outer loop
      vertex  2.245022e+000 -1.631104e+000  0.000000e+000
      vertex  2.245022e+000 -1.631104e+000  4.000000e+000
      vertex  2.775000e+000  0.000000e+000  4.000000e+000
    endloop
  endfacet
  facet normal -9.510565e-001  3.090171e-001  0.000000e+000
    outer loop
      vertex  2.245022e+000 -1.631104e+000  0.000000e+000
      vertex  2.775000e+000  0.000000e+000  4.000000e+000
      vertex  2.775000e+000  0.000000e+000  0.000000e+000
    endloop
  endfacet
  facet normal -5.877853e-001  8.090170e-001  0.000000e+000
    outer loop
      vertex  2.245022e+000 -1.631104e+000  4.000000e+000
      vertex  8.575221e-001 -2.639182e+000  0.000000e+000
      vertex  8.575221e-001 -2.639182e+000  4.000000e+000
    endloop
  endfacet
  facet normal  0.000000e+000  1.000000e+000  0.000000e+000
    outer loop
      vertex  8.575221e-001 -2.639182e+000  4.000000e+000
      vertex  8.575221e-001 -2.639182e+000  0.000000e+000
      vertex -8.575221e-001 -2.639182e+000  0.000000e+000
    endloop
  endfacet
  facet normal  0.000000e+000  1.000000e+000  0.000000e+000
    outer loop
      vertex  8.575221e-001 -2.639182e+000  4.000000e+000
      vertex -8.575221e-001 -2.639182e+000  0.000000e+000
      vertex -8.575221e-001 -2.639182e+000  4.000000e+000
    endloop
  endfacet
  facet normal  5.877853e-001  8.090170e-001  0.000000e+000
    outer loop
      vertex -8.575221e-001 -2.639182e+000  4.000000e+000
      vertex -8.575221e-001 -2.639182e+000  0.000000e+000
      vertex -2.245022e+000 -1.631104e+000  0.000000e+000
    endloop
  endfacet
  facet normal  5.877853e-001  8.090170e-001  -0.000000e+000
    outer loop
      vertex -8.575221e-001 -2.639182e+000  4.000000e+000
      vertex -2.245022e+000 -1.631104e+000  0.000000e+000
      vertex -2.245022e+000 -1.631104e+000  4.000000e+000
    endloop
  endfacet
  facet normal  9.510565e-001  3.090171e-001  0.000000e+000
    outer loop
      vertex -2.245022e+000 -1.631104e+000  4.000000e+000
      vertex -2.245022e+000 -1.631104e+000  0.000000e+000
      vertex -2.775000e+000  3.398283e-016  0.000000e+000
    endloop
  endfacet
  facet normal  9.510565e-001  3.090171e-001  -0.000000e+000
    outer loop
      vertex -2.245022e+000 -1.631104e+000  4.000000e+000
      vertex -2.775000e+000  3.398283e-016  0.000000e+000
      vertex -2.775000e+000  3.398283e-016  4.000000e+000
    endloop
  endfacet
  facet normal  9.659258e-001 -2.588191e-001  0.000000e+000
    outer loop
      vertex  4.275000e+000  0.000000e+000  0.000000e+000
      vertex  4.275000e+000  0.000000e+000  4.000000e+000
      vertex  3.702259e+000 -2.137500e+000  0.000000e+000
    endloop
  endfacet
  facet normal  9.659258e-001 -2.588191e-001  0.000000e+000
    outer loop
      vertex  3.702259e+000 -2.137500e+000  0.000000e+000
      vertex  4.275000e+000  0.000000e+000  4.000000e+000
      vertex  3.702259e+000 -2.137500e+000  4.000000e+000
    endloop
  endfacet
  facet normal  7.071068e-001 -7.071068e-001  0.000000e+000
    outer loop
      vertex  3.702259e+000 -2.137500e+000  0.000000e+000
      vertex  3.702259e+000 -2.137500e+000  4.000000e+000
      vertex  2.137500e+000 -3.702259e+000  0.000000e+000
    endloop
  endfacet
  facet normal  7.071068e-001 -7.071068e-001  0.000000e+000
    outer loop
      vertex  2.137500e+000 -3.702259e+000  0.000000e+000
      vertex  3.702259e+000 -2.137500e+000  4.000000e+000
      vertex  2.137500e+000 -3.702259e+000  4.000000e+000
    endloop
  endfacet
  facet normal  2.588191e-001 -9.659258e-001  0.000000e+000
    outer loop
      vertex  2.137500e+000 -3.702259e+000  0.000000e+000
      vertex  2.137500e+000 -3.702259e+000  4.000000e+000
      vertex -7.852788e-016 -4.275000e+000  0.000000e+000
    endloop
  endfacet
  facet normal  2.588191e-001 -9.659258e-001  0.000000e+000
    outer loop
      vertex -7.852788e-016 -4.275000e+000  0.000000e+000
      vertex  2.137500e+000 -3.702259e+000  4.000000e+000
      vertex -7.852788e-016 -4.275000e+000  4.000000e+000
    endloop
  endfacet
  facet normal -2.588191e-001 -9.659258e-001  -0.000000e+000
    outer loop
      vertex -7.852788e-016 -4.275000e+000  0.000000e+000
      vertex -7.852788e-016 -4.275000e+000  4.000000e+000
      vertex -2.137500e+000 -3.702259e+000  0.000000e+000
    endloop
  endfacet
  facet normal -2.588191e-001 -9.659258e-001  0.000000e+000
    outer loop
      vertex -2.137500e+000 -3.702259e+000  0.000000e+000
      vertex -7.852788e-016 -4.275000e+000  4.000000e+000
      vertex -2.137500e+000 -3.702259e+000  4.000000e+000
    endloop
  endfacet
  facet normal -7.071068e-001 -7.071068e-001  -0.000000e+000
    outer loop
      vertex -2.137500e+000 -3.702259e+000  0.000000e+000
      vertex -2.137500e+000 -3.702259e+000  4.000000e+000
      vertex -3.702259e+000 -2.137500e+000  0.000000e+000
    endloop
  endfacet
  facet normal -7.071068e-001 -7.071068e-001  0.000000e+000
    outer loop
      vertex -3.702259e+000 -2.137500e+000  0.000000e+000
      vertex -2.137500e+000 -3.702259e+000  4.000000e+000
      vertex -3.702259e+000 -2.137500e+000  4.000000e+000
    endloop
  endfacet
  facet normal -9.659258e-001 -2.588191e-001  -0.000000e+000
    outer loop
      vertex -3.702259e+000 -2.137500e+000  0.000000e+000
      vertex -3.702259e+000 -2.137500e+000  4.000000e+000
      vertex -4.275000e+000  5.235192e-016  0.000000e+000
    endloop
  endfacet
  facet normal -9.659258e-001 -2.588191e-001  0.000000e+000
    outer loop
      vertex -4.275000e+000  5.235192e-016  0.000000e+000
      vertex -3.702259e+000 -2.137500e+000  4.000000e+000
      vertex -4.275000e+000  5.235192e-016  4.000000e+000
    endloop
  endfacet
  facet normal -9.659258e-001  2.588191e-001  0.000000e+000
    outer loop
      vertex -4.275000e+000  5.235192e-016  0.000000e+000
      vertex -4.275000e+000  5.235192e-016  4.000000e+000
      vertex -3.702259e+000  2.137500e+000  0.000000e+000
    endloop
  endfacet
  facet normal -9.659258e-001  2.588191e-001  0.000000e+000
    outer loop
      vertex -3.702259e+000  2.137500e+000  0.000000e+000
      vertex -4.275000e+000  5.235192e-016  4.000000e+000
      vertex -3.702259e+000  2.137500e+000  4.000000e+000
    endloop
  endfacet
  facet normal -7.071068e-001  7.071068e-001  0.000000e+000
    outer loop
      vertex -3.702259e+000  2.137500e+000  0.000000e+000
      vertex -3.702259e+000  2.137500e+000  4.000000e+000
      vertex -2.137500e+000  3.702259e+000  0.000000e+000
    endloop
  endfacet
  facet normal -7.071068e-001  7.071068e-001  0.000000e+000
    outer loop
      vertex -2.137500e+000  3.702259e+000  0.000000e+000
      vertex -3.702259e+000  2.137500e+000  4.000000e+000
      vertex -2.137500e+000  3.702259e+000  4.000000e+000
    endloop
  endfacet
  facet normal -2.588191e-001  9.659258e-001  0.000000e+000
    outer loop
      vertex -2.137500e+000  3.702259e+000  0.000000e+000
      vertex -2.137500e+000  3.702259e+000  4.000000e+000
      vertex  2.617596e-016  4.275000e+000  0.000000e+000
    endloop
  endfacet
  facet normal -2.588191e-001  9.659258e-001  0.000000e+000
    outer loop
      vertex  2.617596e-016  4.275000e+000  0.000000e+000
      vertex -2.137500e+000  3.702259e+000  4.000000e+000
      vertex  2.617596e-016  4.275000e+000  4.000000e+000
    endloop
  endfacet
  facet normal  2.588191e-001  9.659258e-001  0.000000e+000
    outer loop
      vertex  2.617596e-016  4.275000e+000  0.000000e+000
      vertex  2.617596e-016  4.275000e+000  4.000000e+000
      vertex  2.137500e+000  3.702259e+000  0.000000e+000
    endloop
  endfacet
  facet normal  2.588191e-001  9.659258e-001  -0.000000e+000
    outer loop
      vertex  2.137500e+000  3.702259e+000  0.000000e+000
      vertex  2.617596e-016  4.275000e+000  4.000000e+000
      vertex  2.137500e+000  3.702259e+000  4.000000e+000
    endloop
  endfacet
  facet normal  7.071068e-001  7.071068e-001  0.000000e+000
    outer loop
      vertex  2.137500e+000  3.702259e+000  0.000000e+000
      vertex  2.137500e+000  3.702259e+000  4.000000e+000
      vertex  3.702259e+000  2.137500e+000  0.000000e+000
    endloop
  endfacet
  facet normal  7.071068e-001  7.071068e-001  -0.000000e+000
    outer loop
      vertex  3.702259e+000  2.137500e+000  0.000000e+000
      vertex  2.137500e+000  3.702259e+000  4.000000e+000
      vertex  3.702259e+000  2.137500e+000  4.000000e+000
    endloop
  endfacet
  facet normal  9.659258e-001  2.588191e-001  0.000000e+000
    outer loop
      vertex  3.702259e+000  2.137500e+000  0.000000e+000
      vertex  3.702259e+000  2.137500e+000  4.000000e+000
      vertex  4.275000e+000  0.000000e+000  0.000000e+000
    endloop
  endfacet
  facet normal  9.659258e-001  2.588191e-001  -0.000000e+000
    outer loop
      vertex  4.275000e+000  0.000000e+000  0.000000e+000
      vertex  3.702259e+000  2.137500e+000  4.000000e+000
      vertex  4.275000e+000  0.000000e+000  4.000000e+000
    endloop
  endfacet
endsolid CATIA STL
