solid CATIA STL
  facet normal -1.000000e+000  0.000000e+000  0.000000e+000
    outer loop
      vertex  0.000000e+000  0.000000e+000  0.000000e+000
      vertex  0.000000e+000  0.000000e+000  3.000000e+001
      vertex  0.000000e+000  1.200000e+001  0.000000e+000
    endloop
  endfacet
  facet normal -1.000000e+000  0.000000e+000  0.000000e+000
    outer loop
      vertex  0.000000e+000  1.200000e+001  0.000000e+000
      vertex  0.000000e+000  0.000000e+000  3.000000e+001
      vertex  0.000000e+000  1.200000e+001  3.000000e+001
    endloop
  endfacet
  facet normal  1.000000e+000  0.000000e+000  0.000000e+000
    outer loop
      vertex  3.000000e+001  0.000000e+000 -1.776357e-015
      vertex  3.000000e+001  1.200000e+001 -1.332268e-015
      vertex  3.000000e+001  0.000000e+000  5.000000e+000
    endloop
  endfacet
  facet normal  1.000000e+000  -0.000000e+000  0.000000e+000
    outer loop
      vertex  3.000000e+001  0.000000e+000  5.000000e+000
      vertex  3.000000e+001  1.200000e+001 -1.332268e-015
      vertex  3.000000e+001  1.200000e+001  5.000000e+000
    endloop
  endfacet
  facet normal  0.000000e+000 -1.000000e+000  -0.000000e+000
    outer loop
      vertex  3.000000e+001  0.000000e+000 -1.776357e-015
      vertex  3.000000e+001  0.000000e+000  5.000000e+000
      vertex  0.000000e+000  0.000000e+000  0.000000e+000
    endloop
  endfacet
  facet normal  0.000000e+000 -1.000000e+000  0.000000e+000
    outer loop
      vertex  0.000000e+000  0.000000e+000  0.000000e+000
      vertex  3.000000e+001  0.000000e+000  5.000000e+000
      vertex  5.000000e+000  0.000000e+000  5.000000e+000
    endloop
  endfacet
  facet normal  -0.000000e+000 -1.000000e+000  0.000000e+000
    outer loop
      vertex  0.000000e+000  0.000000e+000  0.000000e+000
      vertex  5.000000e+000  0.000000e+000  5.000000e+000
      vertex  0.000000e+000  0.000000e+000  3.000000e+001
    endloop
  endfacet
  facet normal  0.000000e+000 -1.000000e+000  0.000000e+000
    outer loop
      vertex  0.000000e+000  0.000000e+000  3.000000e+001
      vertex  5.000000e+000  0.000000e+000  5.000000e+000
      vertex  5.000000e+000  0.000000e+000  3.000000e+001
    endloop
  endfacet
  facet normal  0.000000e+000  1.000000e+000  -0.000000e+000
    outer loop
      vertex  3.000000e+001  1.200000e+001  5.000000e+000
      vertex  3.000000e+001  1.200000e+001 -1.332268e-015
      vertex  5.000000e+000  1.200000e+001  5.000000e+000
    endloop
  endfacet
  facet normal  0.000000e+000  1.000000e+000  0.000000e+000
    outer loop
      vertex  5.000000e+000  1.200000e+001  5.000000e+000
      vertex  3.000000e+001  1.200000e+001 -1.332268e-015
      vertex  0.000000e+000  1.200000e+001  0.000000e+000
    endloop
  endfacet
  facet normal  0.000000e+000  1.000000e+000  0.000000e+000
    outer loop
      vertex  5.000000e+000  1.200000e+001  5.000000e+000
      vertex  0.000000e+000  1.200000e+001  0.000000e+000
      vertex  5.000000e+000  1.200000e+001  3.000000e+001
    endloop
  endfacet
  facet normal  0.000000e+000  1.000000e+000  0.000000e+000
    outer loop
      vertex  5.000000e+000  1.200000e+001  3.000000e+001
      vertex  0.000000e+000  1.200000e+001  0.000000e+000
      vertex  0.000000e+000  1.200000e+001  3.000000e+001
    endloop
  endfacet
  facet normal -4.440892e-017  0.000000e+000 -1.000000e+000
    outer loop
      vertex  0.000000e+000  1.200000e+001  0.000000e+000
      vertex  3.000000e+001  1.200000e+001 -1.332268e-015
      vertex  0.000000e+000  0.000000e+000  0.000000e+000
    endloop
  endfacet
  facet normal -5.921190e-017  3.700744e-017 -1.000000e+000
    outer loop
      vertex  0.000000e+000  0.000000e+000  0.000000e+000
      vertex  3.000000e+001  1.200000e+001 -1.332268e-015
      vertex  3.000000e+001  0.000000e+000 -1.776357e-015
    endloop
  endfacet
  facet normal  0.000000e+000  0.000000e+000  1.000000e+000
    outer loop
      vertex  5.000000e+000  0.000000e+000  5.000000e+000
      vertex  3.000000e+001  0.000000e+000  5.000000e+000
      vertex  5.000000e+000  1.200000e+001  5.000000e+000
    endloop
  endfacet
  facet normal  -0.000000e+000  0.000000e+000  1.000000e+000
    outer loop
      vertex  5.000000e+000  1.200000e+001  5.000000e+000
      vertex  3.000000e+001  0.000000e+000  5.000000e+000
      vertex  3.000000e+001  1.200000e+001  5.000000e+000
    endloop
  endfacet
  facet normal  1.000000e+000  0.000000e+000  0.000000e+000
    outer loop
      vertex  5.000000e+000  0.000000e+000  5.000000e+000
      vertex  5.000000e+000  1.200000e+001  5.000000e+000
      vertex  5.000000e+000  0.000000e+000  3.000000e+001
    endloop
  endfacet
  facet normal  1.000000e+000  -0.000000e+000  0.000000e+000
    outer loop
      vertex  5.000000e+000  0.000000e+000  3.000000e+001
      vertex  5.000000e+000  1.200000e+001  5.000000e+000
      vertex  5.000000e+000  1.200000e+001  3.000000e+001
    endloop
  endfacet
  facet normal  0.000000e+000  0.000000e+000  1.000000e+000
    outer loop
      vertex  5.000000e+000  0.000000e+000  3.000000e+001
      vertex  5.000000e+000  1.200000e+001  3.000000e+001
      vertex  0.000000e+000  0.000000e+000  3.000000e+001
    endloop
  endfacet
  facet normal  0.000000e+000  0.000000e+000  1.000000e+000
    outer loop
      vertex  0.000000e+000  0.000000e+000  3.000000e+001
      vertex  5.000000e+000  1.200000e+001  3.000000e+001
      vertex  0.000000e+000  1.200000e+001  3.000000e+001
    endloop
  endfacet
endsolid CATIA STL
