solid CATIA STL
  facet normal  0.000000e+000 -1.000000e+000  0.000000e+000
    outer loop
      vertex -3.100000e+001 -1.200000e+001  3.400000e+001
      vertex -6.100000e+001 -1.200000e+001  3.400000e+001
      vertex -3.100000e+001 -1.200000e+001  2.900000e+001
    endloop
  endfacet
  facet normal  0.000000e+000 -1.000000e+000  0.000000e+000
    outer loop
      vertex -3.100000e+001 -1.200000e+001  2.900000e+001
      vertex -6.100000e+001 -1.200000e+001  3.400000e+001
      vertex -5.600000e+001 -1.200000e+001  2.900000e+001
    endloop
  endfacet
  facet normal  0.000000e+000 -1.000000e+000  0.000000e+000
    outer loop
      vertex -6.100000e+001 -1.200000e+001  3.400000e+001
      vertex -6.100000e+001 -1.200000e+001  0.000000e+000
      vertex -5.600000e+001 -1.200000e+001  2.900000e+001
    endloop
  endfacet
  facet normal  0.000000e+000 -1.000000e+000  -0.000000e+000
    outer loop
      vertex -5.600000e+001 -1.200000e+001  2.900000e+001
      vertex -6.100000e+001 -1.200000e+001  0.000000e+000
      vertex -5.600000e+001 -1.200000e+001 -3.581135e-012
    endloop
  endfacet
  facet normal  0.000000e+000  1.000000e+000  -0.000000e+000
    outer loop
      vertex -4.600000e+001  3.500000e+001  3.400000e+001
      vertex -4.600000e+001  3.500000e+001  3.150000e+001
      vertex -6.100000e+001  3.500000e+001  3.400000e+001
    endloop
  endfacet
  facet normal  0.000000e+000  1.000000e+000  0.000000e+000
    outer loop
      vertex -6.100000e+001  3.500000e+001  3.400000e+001
      vertex -4.600000e+001  3.500000e+001  3.150000e+001
      vertex -6.100000e+001  3.500000e+001  3.150000e+001
    endloop
  endfacet
  facet normal  0.000000e+000  0.000000e+000  1.000000e+000
    outer loop
      vertex -3.100000e+001 -1.200000e+001  3.400000e+001
      vertex -3.100000e+001 -7.000000e+001  3.400000e+001
      vertex -2.800000e+001 -7.000000e+001  3.400000e+001
    endloop
  endfacet
  facet normal  0.000000e+000  -0.000000e+000  1.000000e+000
    outer loop
      vertex -3.100000e+001 -1.200000e+001  3.400000e+001
      vertex -2.800000e+001 -7.000000e+001  3.400000e+001
      vertex -2.800000e+001  0.000000e+000  3.400000e+001
    endloop
  endfacet
  facet normal  0.000000e+000  0.000000e+000  1.000000e+000
    outer loop
      vertex -3.100000e+001 -1.200000e+001  3.400000e+001
      vertex -2.800000e+001  0.000000e+000  3.400000e+001
      vertex -4.600000e+001  0.000000e+000  3.400000e+001
    endloop
  endfacet
  facet normal  0.000000e+000  0.000000e+000  1.000000e+000
    outer loop
      vertex -3.100000e+001 -1.200000e+001  3.400000e+001
      vertex -4.600000e+001  0.000000e+000  3.400000e+001
      vertex -6.100000e+001 -1.200000e+001  3.400000e+001
    endloop
  endfacet
  facet normal  0.000000e+000  0.000000e+000  9.999999e-001
    outer loop
      vertex -6.100000e+001 -1.200000e+001  3.400000e+001
      vertex -4.600000e+001  0.000000e+000  3.400000e+001
      vertex -6.100000e+001  3.500000e+001  3.400000e+001
    endloop
  endfacet
  facet normal  -0.000000e+000  0.000000e+000  1.000000e+000
    outer loop
      vertex -6.100000e+001  3.500000e+001  3.400000e+001
      vertex -4.600000e+001  0.000000e+000  3.400000e+001
      vertex -4.600000e+001  3.500000e+001  3.400000e+001
    endloop
  endfacet
  facet normal -1.000000e+000  0.000000e+000  0.000000e+000
    outer loop
      vertex -6.100000e+001 -1.200000e+001  0.000000e+000
      vertex -6.100000e+001 -1.200000e+001  3.400000e+001
      vertex -6.100000e+001  0.000000e+000  0.000000e+000
    endloop
  endfacet
  facet normal -9.999999e-001  0.000000e+000  0.000000e+000
    outer loop
      vertex -6.100000e+001  0.000000e+000  0.000000e+000
      vertex -6.100000e+001 -1.200000e+001  3.400000e+001
      vertex -6.100000e+001  0.000000e+000  3.150000e+001
    endloop
  endfacet
  facet normal -9.999999e-001  -0.000000e+000  0.000000e+000
    outer loop
      vertex -6.100000e+001 -1.200000e+001  3.400000e+001
      vertex -6.100000e+001  3.500000e+001  3.400000e+001
      vertex -6.100000e+001  0.000000e+000  3.150000e+001
    endloop
  endfacet
  facet normal -1.000000e+000  0.000000e+000  0.000000e+000
    outer loop
      vertex -6.100000e+001  0.000000e+000  3.150000e+001
      vertex -6.100000e+001  3.500000e+001  3.400000e+001
      vertex -6.100000e+001  3.500000e+001  3.150000e+001
    endloop
  endfacet
  facet normal  0.000000e+000  0.000000e+000 -1.000000e+000
    outer loop
      vertex -4.600000e+001  3.500000e+001  3.150000e+001
      vertex -4.600000e+001 -8.881784e-016  3.150000e+001
      vertex -6.100000e+001  3.500000e+001  3.150000e+001
    endloop
  endfacet
  facet normal  0.000000e+000  0.000000e+000 -1.000000e+000
    outer loop
      vertex -6.100000e+001  3.500000e+001  3.150000e+001
      vertex -4.600000e+001 -8.881784e-016  3.150000e+001
      vertex -6.100000e+001  0.000000e+000  3.150000e+001
    endloop
  endfacet
  facet normal  1.000000e+000  0.000000e+000  0.000000e+000
    outer loop
      vertex -4.600000e+001  3.500000e+001  3.150000e+001
      vertex -4.600000e+001  3.500000e+001  3.400000e+001
      vertex -4.600000e+001 -8.881784e-016  3.150000e+001
    endloop
  endfacet
  facet normal  1.000000e+000  0.000000e+000  0.000000e+000
    outer loop
      vertex -4.600000e+001 -8.881784e-016  3.150000e+001
      vertex -4.600000e+001  3.500000e+001  3.400000e+001
      vertex -4.600000e+001  0.000000e+000  3.400000e+001
    endloop
  endfacet
  facet normal  0.000000e+000  1.000000e+000  -0.000000e+000
    outer loop
      vertex -3.100000e+001  0.000000e+000  2.900000e+001
      vertex -5.600000e+001  0.000000e+000  2.900000e+001
      vertex -6.100000e+001  0.000000e+000  3.150000e+001
    endloop
  endfacet
  facet normal  5.921190e-017  1.000000e+000  7.105427e-016
    outer loop
      vertex -3.100000e+001  0.000000e+000  2.900000e+001
      vertex -6.100000e+001  0.000000e+000  3.150000e+001
      vertex -4.600000e+001 -8.881784e-016  3.150000e+001
    endloop
  endfacet
  facet normal -1.184238e-016  1.000000e+000 -3.552714e-016
    outer loop
      vertex -3.100000e+001  0.000000e+000  2.900000e+001
      vertex -4.600000e+001 -8.881784e-016  3.150000e+001
      vertex -4.600000e+001  0.000000e+000  3.400000e+001
    endloop
  endfacet
  facet normal  -0.000000e+000  1.000000e+000  0.000000e+000
    outer loop
      vertex -3.100000e+001  0.000000e+000  2.900000e+001
      vertex -4.600000e+001  0.000000e+000  3.400000e+001
      vertex -2.800000e+001  0.000000e+000  3.400000e+001
    endloop
  endfacet
  facet normal  0.000000e+000  1.000000e+000  0.000000e+000
    outer loop
      vertex -3.100000e+001  0.000000e+000  2.900000e+001
      vertex -2.800000e+001  0.000000e+000  3.400000e+001
      vertex -2.800000e+001  0.000000e+000  1.400000e+001
    endloop
  endfacet
  facet normal  0.000000e+000  1.000000e+000  0.000000e+000
    outer loop
      vertex -3.100000e+001  0.000000e+000  2.900000e+001
      vertex -2.800000e+001  0.000000e+000  1.400000e+001
      vertex -3.100000e+001  0.000000e+000  1.100000e+001
    endloop
  endfacet
  facet normal  0.000000e+000  1.000000e+000  0.000000e+000
    outer loop
      vertex -1.314504e-013  0.000000e+000  1.400000e+001
      vertex  3.100000e+001  0.000000e+000  1.100000e+001
      vertex -2.800000e+001  0.000000e+000  1.400000e+001
    endloop
  endfacet
  facet normal  0.000000e+000  1.000000e+000  0.000000e+000
    outer loop
      vertex -2.800000e+001  0.000000e+000  1.400000e+001
      vertex  3.100000e+001  0.000000e+000  1.100000e+001
      vertex  7.105427e-015  0.000000e+000  1.100000e+001
    endloop
  endfacet
  facet normal  0.000000e+000  1.000000e+000  0.000000e+000
    outer loop
      vertex -2.800000e+001  0.000000e+000  1.400000e+001
      vertex  7.105427e-015  0.000000e+000  1.100000e+001
      vertex -3.100000e+001  0.000000e+000  1.100000e+001
    endloop
  endfacet
  facet normal  0.000000e+000  1.000000e+000  -0.000000e+000
    outer loop
      vertex -5.600000e+001  0.000000e+000  2.900000e+001
      vertex -5.600000e+001  0.000000e+000 -3.581135e-012
      vertex -6.100000e+001  0.000000e+000  3.150000e+001
    endloop
  endfacet
  facet normal  0.000000e+000  1.000000e+000  0.000000e+000
    outer loop
      vertex -6.100000e+001  0.000000e+000  3.150000e+001
      vertex -5.600000e+001  0.000000e+000 -3.581135e-012
      vertex -6.100000e+001  0.000000e+000  0.000000e+000
    endloop
  endfacet
  facet normal  0.000000e+000  1.000000e+000  0.000000e+000
    outer loop
      vertex  2.800000e+001  0.000000e+000  3.400000e+001
      vertex  4.600000e+001  0.000000e+000  3.400000e+001
      vertex  3.100000e+001  0.000000e+000  2.900000e+001
    endloop
  endfacet
  facet normal  0.000000e+000  1.000000e+000  0.000000e+000
    outer loop
      vertex  3.100000e+001  0.000000e+000  2.900000e+001
      vertex  4.600000e+001  0.000000e+000  3.400000e+001
      vertex  4.600000e+001  0.000000e+000  3.150000e+001
    endloop
  endfacet
  facet normal  0.000000e+000  1.000000e+000  0.000000e+000
    outer loop
      vertex  3.100000e+001  0.000000e+000  2.900000e+001
      vertex  4.600000e+001  0.000000e+000  3.150000e+001
      vertex  5.600000e+001  0.000000e+000  2.900000e+001
    endloop
  endfacet
  facet normal  0.000000e+000  1.000000e+000  -0.000000e+000
    outer loop
      vertex  5.600000e+001  0.000000e+000  2.900000e+001
      vertex  4.600000e+001  0.000000e+000  3.150000e+001
      vertex  6.100000e+001  0.000000e+000  3.150000e+001
    endloop
  endfacet
  facet normal  0.000000e+000  1.000000e+000  0.000000e+000
    outer loop
      vertex  5.600000e+001  0.000000e+000  2.900000e+001
      vertex  6.100000e+001  0.000000e+000  3.150000e+001
      vertex  5.600000e+001  0.000000e+000  1.644678e-014
    endloop
  endfacet
  facet normal  0.000000e+000  1.000000e+000  0.000000e+000
    outer loop
      vertex  5.600000e+001  0.000000e+000  1.644678e-014
      vertex  6.100000e+001  0.000000e+000  3.150000e+001
      vertex  6.100000e+001  0.000000e+000  1.644678e-014
    endloop
  endfacet
  facet normal  0.000000e+000  1.000000e+000  0.000000e+000
    outer loop
      vertex  2.800000e+001  0.000000e+000  3.400000e+001
      vertex  3.100000e+001  0.000000e+000  2.900000e+001
      vertex  2.800000e+001  0.000000e+000  1.400000e+001
    endloop
  endfacet
  facet normal  -0.000000e+000  1.000000e+000  0.000000e+000
    outer loop
      vertex  2.800000e+001  0.000000e+000  1.400000e+001
      vertex  3.100000e+001  0.000000e+000  2.900000e+001
      vertex  3.100000e+001  0.000000e+000  1.100000e+001
    endloop
  endfacet
  facet normal  0.000000e+000  1.000000e+000  0.000000e+000
    outer loop
      vertex  2.800000e+001  0.000000e+000  1.400000e+001
      vertex  3.100000e+001  0.000000e+000  1.100000e+001
      vertex -1.314504e-013  0.000000e+000  1.400000e+001
    endloop
  endfacet
  facet normal  0.000000e+000 -1.000000e+000  -0.000000e+000
    outer loop
      vertex  6.100000e+001 -1.200000e+001  1.644678e-014
      vertex  6.100000e+001 -1.200000e+001  3.400000e+001
      vertex  5.600000e+001 -1.200000e+001  1.644678e-014
    endloop
  endfacet
  facet normal  0.000000e+000 -1.000000e+000  0.000000e+000
    outer loop
      vertex  5.600000e+001 -1.200000e+001  1.644678e-014
      vertex  6.100000e+001 -1.200000e+001  3.400000e+001
      vertex  5.600000e+001 -1.200000e+001  2.900000e+001
    endloop
  endfacet
  facet normal  0.000000e+000 -1.000000e+000  0.000000e+000
    outer loop
      vertex  6.100000e+001 -1.200000e+001  3.400000e+001
      vertex  3.100000e+001 -1.200000e+001  3.400000e+001
      vertex  5.600000e+001 -1.200000e+001  2.900000e+001
    endloop
  endfacet
  facet normal  0.000000e+000 -1.000000e+000  0.000000e+000
    outer loop
      vertex  5.600000e+001 -1.200000e+001  2.900000e+001
      vertex  3.100000e+001 -1.200000e+001  3.400000e+001
      vertex  3.100000e+001 -1.200000e+001  2.900000e+001
    endloop
  endfacet
  facet normal  0.000000e+000  1.000000e+000  -0.000000e+000
    outer loop
      vertex  6.100000e+001  3.500000e+001  3.400000e+001
      vertex  6.100000e+001  3.500000e+001  3.150000e+001
      vertex  4.600000e+001  3.500000e+001  3.400000e+001
    endloop
  endfacet
  facet normal  0.000000e+000  1.000000e+000  0.000000e+000
    outer loop
      vertex  4.600000e+001  3.500000e+001  3.400000e+001
      vertex  6.100000e+001  3.500000e+001  3.150000e+001
      vertex  4.600000e+001  3.500000e+001  3.150000e+001
    endloop
  endfacet
  facet normal  -0.000000e+000  0.000000e+000  1.000000e+000
    outer loop
      vertex  4.600000e+001  0.000000e+000  3.400000e+001
      vertex  2.800000e+001  0.000000e+000  3.400000e+001
      vertex  3.100000e+001 -1.200000e+001  3.400000e+001
    endloop
  endfacet
  facet normal  0.000000e+000  0.000000e+000  1.000000e+000
    outer loop
      vertex  4.600000e+001  0.000000e+000  3.400000e+001
      vertex  3.100000e+001 -1.200000e+001  3.400000e+001
      vertex  6.100000e+001 -1.200000e+001  3.400000e+001
    endloop
  endfacet
  facet normal  0.000000e+000  -0.000000e+000  9.999999e-001
    outer loop
      vertex  4.600000e+001  0.000000e+000  3.400000e+001
      vertex  6.100000e+001 -1.200000e+001  3.400000e+001
      vertex  6.100000e+001  3.500000e+001  3.400000e+001
    endloop
  endfacet
  facet normal  0.000000e+000  0.000000e+000  1.000000e+000
    outer loop
      vertex  4.600000e+001  0.000000e+000  3.400000e+001
      vertex  6.100000e+001  3.500000e+001  3.400000e+001
      vertex  4.600000e+001  3.500000e+001  3.400000e+001
    endloop
  endfacet
  facet normal  0.000000e+000  0.000000e+000  1.000000e+000
    outer loop
      vertex  3.100000e+001 -7.000000e+001  3.400000e+001
      vertex  3.100000e+001 -1.200000e+001  3.400000e+001
      vertex  2.800000e+001 -7.000000e+001  3.400000e+001
    endloop
  endfacet
  facet normal  0.000000e+000  0.000000e+000  1.000000e+000
    outer loop
      vertex  2.800000e+001 -7.000000e+001  3.400000e+001
      vertex  3.100000e+001 -1.200000e+001  3.400000e+001
      vertex  2.800000e+001  0.000000e+000  3.400000e+001
    endloop
  endfacet
  facet normal  1.000000e+000  0.000000e+000  0.000000e+000
    outer loop
      vertex  6.100000e+001 -1.200000e+001  1.644678e-014
      vertex  6.100000e+001  0.000000e+000  1.644678e-014
      vertex  6.100000e+001 -1.200000e+001  3.400000e+001
    endloop
  endfacet
  facet normal  9.999999e-001  0.000000e+000  0.000000e+000
    outer loop
      vertex  6.100000e+001 -1.200000e+001  3.400000e+001
      vertex  6.100000e+001  0.000000e+000  1.644678e-014
      vertex  6.100000e+001  0.000000e+000  3.150000e+001
    endloop
  endfacet
  facet normal  9.999999e-001  0.000000e+000  -0.000000e+000
    outer loop
      vertex  6.100000e+001 -1.200000e+001  3.400000e+001
      vertex  6.100000e+001  0.000000e+000  3.150000e+001
      vertex  6.100000e+001  3.500000e+001  3.400000e+001
    endloop
  endfacet
  facet normal  1.000000e+000  0.000000e+000  0.000000e+000
    outer loop
      vertex  6.100000e+001  3.500000e+001  3.400000e+001
      vertex  6.100000e+001  0.000000e+000  3.150000e+001
      vertex  6.100000e+001  3.500000e+001  3.150000e+001
    endloop
  endfacet
  facet normal -1.000000e+000  0.000000e+000  0.000000e+000
    outer loop
      vertex  4.600000e+001  0.000000e+000  3.150000e+001
      vertex  4.600000e+001  0.000000e+000  3.400000e+001
      vertex  4.600000e+001  3.500000e+001  3.150000e+001
    endloop
  endfacet
  facet normal -1.000000e+000  0.000000e+000  0.000000e+000
    outer loop
      vertex  4.600000e+001  3.500000e+001  3.150000e+001
      vertex  4.600000e+001  0.000000e+000  3.400000e+001
      vertex  4.600000e+001  3.500000e+001  3.400000e+001
    endloop
  endfacet
  facet normal  -0.000000e+000  0.000000e+000 -1.000000e+000
    outer loop
      vertex  4.600000e+001  3.500000e+001  3.150000e+001
      vertex  6.100000e+001  3.500000e+001  3.150000e+001
      vertex  4.600000e+001  0.000000e+000  3.150000e+001
    endloop
  endfacet
  facet normal  0.000000e+000  0.000000e+000 -1.000000e+000
    outer loop
      vertex  4.600000e+001  0.000000e+000  3.150000e+001
      vertex  6.100000e+001  3.500000e+001  3.150000e+001
      vertex  6.100000e+001  0.000000e+000  3.150000e+001
    endloop
  endfacet
  facet normal -1.000000e+000  0.000000e+000  0.000000e+000
    outer loop
      vertex  2.800000e+001  0.000000e+000  3.400000e+001
      vertex  2.800000e+001  0.000000e+000  1.400000e+001
      vertex  2.800000e+001 -7.000000e+001  3.400000e+001
    endloop
  endfacet
  facet normal -1.000000e+000  0.000000e+000  0.000000e+000
    outer loop
      vertex  2.800000e+001 -7.000000e+001  3.400000e+001
      vertex  2.800000e+001  0.000000e+000  1.400000e+001
      vertex  2.800000e+001 -7.000000e+001  1.400000e+001
    endloop
  endfacet
  facet normal  1.000000e+000  -0.000000e+000  0.000000e+000
    outer loop
      vertex -2.800000e+001  0.000000e+000  3.400000e+001
      vertex -2.800000e+001 -7.000000e+001  3.400000e+001
      vertex -2.800000e+001  0.000000e+000  1.400000e+001
    endloop
  endfacet
  facet normal  1.000000e+000  0.000000e+000  0.000000e+000
    outer loop
      vertex -2.800000e+001  0.000000e+000  1.400000e+001
      vertex -2.800000e+001 -7.000000e+001  3.400000e+001
      vertex -2.800000e+001 -7.000000e+001  1.400000e+001
    endloop
  endfacet
  facet normal  1.000000e+000  0.000000e+000  0.000000e+000
    outer loop
      vertex  3.100000e+001 -7.000000e+001  3.400000e+001
      vertex  3.100000e+001 -7.000000e+001  1.100000e+001
      vertex  3.100000e+001 -1.200000e+001  3.400000e+001
    endloop
  endfacet
  facet normal  1.000000e+000  0.000000e+000  0.000000e+000
    outer loop
      vertex  3.100000e+001 -1.200000e+001  3.400000e+001
      vertex  3.100000e+001 -7.000000e+001  1.100000e+001
      vertex  3.100000e+001 -1.200000e+001  2.900000e+001
    endloop
  endfacet
  facet normal  1.000000e+000  0.000000e+000  0.000000e+000
    outer loop
      vertex  3.100000e+001 -7.000000e+001  1.100000e+001
      vertex  3.100000e+001  0.000000e+000  1.100000e+001
      vertex  3.100000e+001 -1.200000e+001  2.900000e+001
    endloop
  endfacet
  facet normal  1.000000e+000  -0.000000e+000  0.000000e+000
    outer loop
      vertex  3.100000e+001 -1.200000e+001  2.900000e+001
      vertex  3.100000e+001  0.000000e+000  1.100000e+001
      vertex  3.100000e+001  0.000000e+000  2.900000e+001
    endloop
  endfacet
  facet normal -1.000000e+000  -0.000000e+000  0.000000e+000
    outer loop
      vertex -3.100000e+001 -7.000000e+001  3.400000e+001
      vertex -3.100000e+001 -1.200000e+001  3.400000e+001
      vertex -3.100000e+001 -7.000000e+001  1.100000e+001
    endloop
  endfacet
  facet normal -1.000000e+000  0.000000e+000  0.000000e+000
    outer loop
      vertex -3.100000e+001 -7.000000e+001  1.100000e+001
      vertex -3.100000e+001 -1.200000e+001  3.400000e+001
      vertex -3.100000e+001 -1.200000e+001  2.900000e+001
    endloop
  endfacet
  facet normal -1.000000e+000  0.000000e+000  -0.000000e+000
    outer loop
      vertex -3.100000e+001 -7.000000e+001  1.100000e+001
      vertex -3.100000e+001 -1.200000e+001  2.900000e+001
      vertex -3.100000e+001  0.000000e+000  1.100000e+001
    endloop
  endfacet
  facet normal -1.000000e+000  0.000000e+000  0.000000e+000
    outer loop
      vertex -3.100000e+001  0.000000e+000  1.100000e+001
      vertex -3.100000e+001 -1.200000e+001  2.900000e+001
      vertex -3.100000e+001  0.000000e+000  2.900000e+001
    endloop
  endfacet
  facet normal  0.000000e+000  0.000000e+000 -1.000000e+000
    outer loop
      vertex -5.600000e+001 -1.200000e+001  2.900000e+001
      vertex -5.600000e+001  0.000000e+000  2.900000e+001
      vertex -3.100000e+001 -1.200000e+001  2.900000e+001
    endloop
  endfacet
  facet normal  0.000000e+000  0.000000e+000 -1.000000e+000
    outer loop
      vertex -3.100000e+001 -1.200000e+001  2.900000e+001
      vertex -5.600000e+001  0.000000e+000  2.900000e+001
      vertex -3.100000e+001  0.000000e+000  2.900000e+001
    endloop
  endfacet
  facet normal  0.000000e+000  0.000000e+000 -1.000000e+000
    outer loop
      vertex  3.100000e+001 -1.200000e+001  2.900000e+001
      vertex  3.100000e+001  0.000000e+000  2.900000e+001
      vertex  5.600000e+001 -1.200000e+001  2.900000e+001
    endloop
  endfacet
  facet normal  0.000000e+000  0.000000e+000 -1.000000e+000
    outer loop
      vertex  5.600000e+001 -1.200000e+001  2.900000e+001
      vertex  3.100000e+001  0.000000e+000  2.900000e+001
      vertex  5.600000e+001  0.000000e+000  2.900000e+001
    endloop
  endfacet
  facet normal  0.000000e+000 -1.000000e+000  -0.000000e+000
    outer loop
      vertex  7.105427e-015 -7.000000e+001  1.100000e+001
      vertex -2.800000e+001 -7.000000e+001  1.400000e+001
      vertex -3.100000e+001 -7.000000e+001  1.100000e+001
    endloop
  endfacet
  facet normal  0.000000e+000 -1.000000e+000  0.000000e+000
    outer loop
      vertex -3.100000e+001 -7.000000e+001  1.100000e+001
      vertex -2.800000e+001 -7.000000e+001  1.400000e+001
      vertex -2.800000e+001 -7.000000e+001  3.400000e+001
    endloop
  endfacet
  facet normal  -0.000000e+000 -1.000000e+000  0.000000e+000
    outer loop
      vertex -3.100000e+001 -7.000000e+001  1.100000e+001
      vertex -2.800000e+001 -7.000000e+001  3.400000e+001
      vertex -3.100000e+001 -7.000000e+001  3.400000e+001
    endloop
  endfacet
  facet normal  0.000000e+000 -1.000000e+000  0.000000e+000
    outer loop
      vertex -1.314504e-013 -7.000000e+001  1.400000e+001
      vertex  3.100000e+001 -7.000000e+001  1.100000e+001
      vertex  2.800000e+001 -7.000000e+001  1.400000e+001
    endloop
  endfacet
  facet normal  0.000000e+000 -1.000000e+000  0.000000e+000
    outer loop
      vertex  2.800000e+001 -7.000000e+001  1.400000e+001
      vertex  3.100000e+001 -7.000000e+001  1.100000e+001
      vertex  3.100000e+001 -7.000000e+001  3.400000e+001
    endloop
  endfacet
  facet normal  -0.000000e+000 -1.000000e+000  0.000000e+000
    outer loop
      vertex  2.800000e+001 -7.000000e+001  1.400000e+001
      vertex  3.100000e+001 -7.000000e+001  3.400000e+001
      vertex  2.800000e+001 -7.000000e+001  3.400000e+001
    endloop
  endfacet
  facet normal  0.000000e+000 -1.000000e+000  0.000000e+000
    outer loop
      vertex  3.100000e+001 -7.000000e+001  1.100000e+001
      vertex -1.314504e-013 -7.000000e+001  1.400000e+001
      vertex  7.105427e-015 -7.000000e+001  1.100000e+001
    endloop
  endfacet
  facet normal  0.000000e+000 -1.000000e+000  0.000000e+000
    outer loop
      vertex  7.105427e-015 -7.000000e+001  1.100000e+001
      vertex -1.314504e-013 -7.000000e+001  1.400000e+001
      vertex -2.800000e+001 -7.000000e+001  1.400000e+001
    endloop
  endfacet
  facet normal  0.000000e+000  0.000000e+000 -1.000000e+000
    outer loop
      vertex  7.105427e-015  0.000000e+000  1.100000e+001
      vertex  7.105427e-015 -7.000000e+001  1.100000e+001
      vertex -3.100000e+001  0.000000e+000  1.100000e+001
    endloop
  endfacet
  facet normal  0.000000e+000  0.000000e+000 -1.000000e+000
    outer loop
      vertex -3.100000e+001  0.000000e+000  1.100000e+001
      vertex  7.105427e-015 -7.000000e+001  1.100000e+001
      vertex -3.100000e+001 -7.000000e+001  1.100000e+001
    endloop
  endfacet
  facet normal  0.000000e+000  0.000000e+000 -1.000000e+000
    outer loop
      vertex  3.100000e+001  0.000000e+000  1.100000e+001
      vertex  3.100000e+001 -7.000000e+001  1.100000e+001
      vertex  7.105427e-015  0.000000e+000  1.100000e+001
    endloop
  endfacet
  facet normal  0.000000e+000  0.000000e+000 -1.000000e+000
    outer loop
      vertex  7.105427e-015  0.000000e+000  1.100000e+001
      vertex  3.100000e+001 -7.000000e+001  1.100000e+001
      vertex  7.105427e-015 -7.000000e+001  1.100000e+001
    endloop
  endfacet
  facet normal  0.000000e+000  0.000000e+000  9.999999e-001
    outer loop
      vertex -1.314504e-013  0.000000e+000  1.400000e+001
      vertex -1.314504e-013 -7.000000e+001  1.400000e+001
      vertex  2.800000e+001  0.000000e+000  1.400000e+001
    endloop
  endfacet
  facet normal  0.000000e+000  0.000000e+000  9.999999e-001
    outer loop
      vertex  2.800000e+001  0.000000e+000  1.400000e+001
      vertex -1.314504e-013 -7.000000e+001  1.400000e+001
      vertex  2.800000e+001 -7.000000e+001  1.400000e+001
    endloop
  endfacet
  facet normal  0.000000e+000  0.000000e+000  9.999999e-001
    outer loop
      vertex -2.800000e+001  0.000000e+000  1.400000e+001
      vertex -2.800000e+001 -7.000000e+001  1.400000e+001
      vertex -1.314504e-013  0.000000e+000  1.400000e+001
    endloop
  endfacet
  facet normal  0.000000e+000  0.000000e+000  9.999999e-001
    outer loop
      vertex -1.314504e-013  0.000000e+000  1.400000e+001
      vertex -2.800000e+001 -7.000000e+001  1.400000e+001
      vertex -1.314504e-013 -7.000000e+001  1.400000e+001
    endloop
  endfacet
  facet normal -7.162271e-013  -0.000000e+000 -1.000000e+000
    outer loop
      vertex -6.100000e+001 -1.200000e+001  0.000000e+000
      vertex -6.100000e+001  0.000000e+000  0.000000e+000
      vertex -5.600000e+001 -1.200000e+001 -3.581135e-012
    endloop
  endfacet
  facet normal -7.162271e-013  0.000000e+000 -1.000000e+000
    outer loop
      vertex -5.600000e+001 -1.200000e+001 -3.581135e-012
      vertex -6.100000e+001  0.000000e+000  0.000000e+000
      vertex -5.600000e+001  0.000000e+000 -3.581135e-012
    endloop
  endfacet
  facet normal  1.000000e+000  0.000000e+000  0.000000e+000
    outer loop
      vertex -5.600000e+001 -1.200000e+001  2.900000e+001
      vertex -5.600000e+001 -1.200000e+001 -3.581135e-012
      vertex -5.600000e+001  0.000000e+000  2.900000e+001
    endloop
  endfacet
  facet normal  1.000000e+000  0.000000e+000  0.000000e+000
    outer loop
      vertex -5.600000e+001  0.000000e+000  2.900000e+001
      vertex -5.600000e+001 -1.200000e+001 -3.581135e-012
      vertex -5.600000e+001  0.000000e+000 -3.581135e-012
    endloop
  endfacet
  facet normal -1.000000e+000  -0.000000e+000  0.000000e+000
    outer loop
      vertex  5.600000e+001 -1.200000e+001  2.900000e+001
      vertex  5.600000e+001  0.000000e+000  2.900000e+001
      vertex  5.600000e+001 -1.200000e+001  1.644678e-014
    endloop
  endfacet
  facet normal -1.000000e+000  0.000000e+000  0.000000e+000
    outer loop
      vertex  5.600000e+001 -1.200000e+001  1.644678e-014
      vertex  5.600000e+001  0.000000e+000  2.900000e+001
      vertex  5.600000e+001  0.000000e+000  1.644678e-014
    endloop
  endfacet
  facet normal  0.000000e+000  0.000000e+000 -1.000000e+000
    outer loop
      vertex  5.600000e+001 -1.200000e+001  1.644678e-014
      vertex  5.600000e+001  0.000000e+000  1.644678e-014
      vertex  6.100000e+001 -1.200000e+001  1.644678e-014
    endloop
  endfacet
  facet normal  0.000000e+000  0.000000e+000 -1.000000e+000
    outer loop
      vertex  6.100000e+001 -1.200000e+001  1.644678e-014
      vertex  5.600000e+001  0.000000e+000  1.644678e-014
      vertex  6.100000e+001  0.000000e+000  1.644678e-014
    endloop
  endfacet
endsolid CATIA STL
